<svg xmlns="http://www.w3.org/2000/svg" width="111" height="85" viewBox="0 0 111 85" fill="none">
    <path d="M97.0438 43.8844L96.6987 43.8124L96.8193 43.26L96.8201 43.2565L99.7174 30.8493L100.036 29.484L98.9255 30.3395L89.7931 37.3724L86.7878 31.0459L86.3316 30.0855L85.8829 31.0495L82.2361 38.8849L81.5885 38.5882L81.5852 38.5866L71.6705 33.9549L70.5138 33.4146L70.9958 34.5967L75.1465 44.7758L64.9605 48.3606L63.8399 48.755L64.9052 49.2807L75.3267 54.4227L74.9606 55.3815L74.9593 55.3849L69.7738 68.4041L69.212 69.8146L70.502 69.014L81.4884 62.1952L81.4885 62.1953L81.4986 62.1887L82.6055 61.464L82.6724 61.6174L82.6738 61.6207L86.333 70.3562L86.7825 71.4292L87.2517 70.3647L91.0262 61.8016L98.5117 64.7707L99.4524 65.1438L99.1772 64.1699L96.583 54.9909L96.5789 54.9767L96.5741 54.9627L96.5487 54.8897L98.4373 53.6212L98.4411 53.6187L108.127 47.2394L109.11 46.5918L107.961 46.334L97.0512 43.886L97.0512 43.8859L97.0438 43.8844ZM93.6398 55.8788L94.6698 59.5586L91.6321 58.4208L89.9622 57.7248L89.5082 57.5356L89.3115 57.9864L88.3212 60.256L88.3197 60.2594L86.8846 63.4824L85.502 60.182L85.5007 60.1788L84.2814 57.2095L84.0589 56.6676L83.5587 56.9725L79.9729 59.158L79.9729 59.158L79.9695 59.1601L75.7614 61.7721L77.7977 56.6254L77.7991 56.6219L79.2474 53.0412L79.4182 52.619L79.0137 52.4097L76.6485 51.1857L76.6485 51.1857L76.6443 51.1835L72.4983 49.0877L76.815 47.5552L76.815 47.5552L76.8206 47.5532L78.957 46.7662L79.4393 46.5886L79.2484 46.1114L78.4093 44.0133L78.4093 44.0133L78.4078 44.0097L76.6083 39.6108L80.3983 41.4147L80.4006 41.4158L83.2975 42.8133L83.7525 43.0328L83.9673 42.5756L85.0355 40.3026L85.0363 40.3009L86.414 37.3408L87.7918 40.3009L87.7918 40.3009L88.4022 41.6124L88.6692 42.1859L89.1655 41.7936L91.3756 40.047L94.9162 37.3203L93.7855 42.1618L93.7854 42.1621L92.9463 45.746L92.8318 46.2351L93.3215 46.3473L96.3734 47.0468L96.3764 47.0475L100.734 48.0183L96.8977 50.5997L96.8951 50.6014L93.1592 53.0477L92.8463 53.2526L92.9545 53.6106L93.6398 55.8788Z" fill="black" stroke="black"/>
    <path d="M41.9834 37.265C41.9862 35.819 42.2957 34.1531 42.9467 32.1069L42.9469 32.1071C43.285 31.0481 44.4176 30.4633 45.4771 30.8024C46.5361 31.1405 47.1205 32.2731 46.7819 33.3321C46.2111 35.1125 46.0066 36.4196 46.0094 37.2652C46.0094 37.7877 46.0831 38.1258 46.1558 38.32C46.2772 38.6085 46.3176 38.6103 46.4334 38.6887C46.5507 38.7567 46.8288 38.8364 47.2345 38.834C47.8545 38.8397 48.6973 38.6474 49.3361 38.4316C49.6569 38.3256 49.9308 38.2182 50.117 38.1399C50.2103 38.1005 50.2816 38.0691 50.3257 38.0494C50.3473 38.0391 50.3637 38.032 50.3716 38.0283L50.374 38.0269C50.4467 37.9917 50.5213 37.9626 50.5958 37.9368C51.167 37.6493 51.7383 37.3623 52.3095 37.0748C52.9507 37.3009 53.6354 37.4256 54.344 37.4256C54.7479 37.4256 55.1559 37.3848 55.5559 37.3051C56.6356 37.0898 57.5919 36.602 58.3709 35.9285C58.9919 35.3915 59.4989 34.7368 59.8638 34.0061L59.8891 33.9563L59.8891 33.9564C59.9271 33.9615 59.9651 33.9667 60.0035 33.9728C60.1264 33.9498 60.253 33.9362 60.3829 33.9362V33.9357C61.9635 33.9281 63.3123 34.8006 64.1035 35.8966C64.8614 36.9299 65.2591 38.1798 65.313 39.5042C65.3168 39.5989 65.3234 39.6923 65.3238 39.7875C65.3238 40.2691 65.2755 40.763 65.1719 41.261C65.1709 41.2662 65.1705 41.2704 65.1695 41.2751C65.0743 41.7412 64.928 42.2098 64.731 42.6689C64.1781 43.961 63.2204 45.1851 61.8453 46.1142C61.1609 46.5794 60.3852 46.9711 59.5166 47.2816C58.5829 47.6155 57.5412 47.8537 56.3902 47.986C55.6984 48.0657 54.9682 48.1079 54.1971 48.1079H54.1896C53.9265 48.1079 53.655 48.1 53.382 48.0906C52.9856 48.077 52.5818 48.0563 52.1639 48.0216C51.0557 47.9292 50.2321 46.957 50.3236 45.8487C50.3742 45.2342 50.6965 44.7076 51.1622 44.3755C51.5364 44.1086 52.0021 43.967 52.496 44.0083C53.0981 44.058 53.6628 44.0814 54.19 44.0814C54.78 44.081 55.3198 44.0505 55.8179 43.9975C56.6589 43.9079 57.3741 43.7513 57.9786 43.5519C58.6343 43.3357 59.1628 43.0703 59.5793 42.7856C60.6055 42.0775 61.0511 41.2632 61.2274 40.4551C61.2279 40.4542 61.2279 40.4533 61.2284 40.4523C61.2284 40.4519 61.2289 40.4509 61.2289 40.4504C61.2753 40.2272 61.2973 40.0054 61.2973 39.7868C61.2987 39.6081 61.2819 39.436 61.2537 39.2733C61.0028 39.5786 60.8194 39.9435 60.7355 40.3482C60.5582 41.162 60.0859 41.8242 59.2952 42.3706C58.9523 42.6046 58.4744 42.8569 57.8286 43.0713L55.7861 43.4943C55.3049 43.5464 54.7768 43.5773 54.19 43.5778C53.6656 43.5778 53.1094 43.5529 52.5372 43.506C52.4669 43.4999 52.3965 43.4976 52.3266 43.4976C51.7709 43.4976 51.2522 43.6842 50.8315 43.9985C50.4076 43.5267 49.9489 43.0581 49.4578 42.5783C48.7923 42.7369 48.0415 42.8565 47.2339 42.8602C46.1162 42.8602 44.7608 42.613 43.6371 41.6089C43.086 41.1146 42.6475 40.4528 42.3778 39.7132C42.1044 38.9707 41.9834 38.1551 41.9834 37.265Z" fill="black"/>
    <path d="M56.5019 48.4802C55.7694 48.566 55.0006 48.6096 54.1968 48.6096L54.1896 48.6086C53.9805 48.6086 53.7628 48.6006 53.5476 48.5945C53.9186 49.836 54.1048 51.2716 54.0785 53.0182L46.3188 57.5994C45.4873 58.09 44.9269 58.9374 44.7998 59.8956C44.6727 60.8539 44.9939 61.8172 45.6698 62.508L51.6585 68.6308C51.7462 67.6319 51.9947 66.5513 52.4572 65.3886C53.1044 63.7607 53.579 62.6764 53.9256 61.9513L52.973 60.9776L55.9311 59.231C55.698 59.6062 55.4644 60.0025 55.2322 60.4181C54.9049 61.0039 54.5808 61.6309 54.2652 62.2988C53.7972 63.2885 53.3478 64.3667 52.9365 65.5424C52.5688 66.593 52.2335 67.7201 51.9418 68.9202C51.8395 69.3404 51.7439 69.7715 51.6533 70.21C51.0005 73.3664 50.6562 76.9993 50.8302 81.1265C50.9024 82.8628 52.3685 84.2107 54.1048 84.138C55.4306 84.0821 56.531 83.2131 56.9437 82.0322C57.0708 81.6673 57.1332 81.2733 57.1158 80.8634C57.0572 79.4578 57.067 78.1311 57.1318 76.8783C57.2031 75.499 57.3438 74.2135 57.5346 73.0109C57.8582 70.9745 58.3286 69.1819 58.8746 67.6174C58.9241 67.4757 58.9749 67.3379 59.0258 67.1998L59.035 67.1751C60.1578 64.1289 61.5535 61.9706 62.6576 60.5776C63.2354 59.8483 63.733 59.3306 64.0651 59.0112C64.0712 59.0055 64.0763 59.0004 64.0824 58.9947C64.2391 58.8447 64.3587 58.7396 64.429 58.6796C64.4647 58.6486 64.4881 58.6289 64.497 58.6228L64.4989 58.621C65.1986 58.0769 65.6039 57.2947 65.693 56.4767C65.7521 56.246 65.783 56.0002 65.7797 55.7446C65.731 51.6169 65.5992 47.4939 64.8882 43.5088C64.2531 44.6917 63.3137 45.7286 62.1257 46.5311C61.4101 47.0174 60.6137 47.4179 59.7418 47.7345L56.5019 48.4802Z" fill="black"/>
    <path d="M59.4272 67.5764L59.5266 67.6782C60.7418 68.9197 60.7198 70.9111 59.4779 72.1262C59.0375 72.5572 58.5019 72.8302 57.9409 72.9503C58.3274 71.2295 58.8053 69.3451 59.3498 67.7842C59.3746 67.7139 59.4023 67.6459 59.4271 67.5765L59.4272 67.5764Z" fill="black"/>
    <path d="M58.6262 34.9653C57.8321 35.8832 56.7389 36.5543 55.4567 36.8099C54.6008 36.9806 53.7509 36.9482 52.9579 36.7466C50.9107 36.226 49.2391 34.5751 48.7983 32.3656C48.1872 29.2993 50.1776 26.3193 53.2434 25.7077C56.3088 25.0966 59.2898 27.087 59.9009 30.152C60.1663 31.4835 59.9403 32.7991 59.3498 33.9115C59.2429 34.1127 59.1233 34.3064 58.9929 34.493C58.8789 34.6567 58.7565 34.8143 58.6261 34.9653L58.6262 34.9653Z" fill="black"/>
    <path d="M67.1874 30.1444C67.1064 29.9521 67.1964 29.7307 67.3885 29.6504L67.3885 29.6493L70.0763 28.5207L66.8423 27.4429C66.7218 27.4028 66.6282 27.3028 66.5964 27.1789C66.564 27.056 66.5974 26.9229 66.6835 26.83L69.7087 23.5288L65.4565 24.3771C65.3354 24.401 65.2103 24.3645 65.1211 24.2786C65.0322 24.1931 64.9911 24.0688 65.0103 23.9471L65.6334 20.046L62.3834 22.8695C62.2862 22.9535 62.1538 22.9831 62.0301 22.9473C61.9067 22.9109 61.8103 22.8155 61.7735 22.6922L60.7106 19.1065L58.9888 23.5447C58.9468 23.6525 58.8564 23.7361 58.746 23.7693C58.6346 23.8025 58.5136 23.7828 58.419 23.7157L56.1354 22.0995L56.6306 24.8036C56.6677 25.0085 56.5327 25.2051 56.3276 25.2429C56.1225 25.2807 55.9257 25.1452 55.8879 24.9401L55.2257 21.324C55.1985 21.1728 55.2646 21.0203 55.3939 20.9378C55.5232 20.8553 55.689 20.8585 55.8146 20.9479L58.4599 22.8198L60.4069 17.8031C60.4653 17.652 60.6123 17.5558 60.7736 17.5626C60.9353 17.569 61.0741 17.6774 61.1206 17.8328L62.3313 21.9147L65.922 18.7959C66.0416 18.692 66.2142 18.6741 66.3529 18.7512C66.4914 18.828 66.5672 18.9836 66.5426 19.1401L65.841 23.5301L70.6937 22.5626C70.8536 22.5307 71.0166 22.6056 71.0969 22.7477C71.1772 22.8899 71.1561 23.0679 71.0455 23.1877L67.6334 26.9105L71.2669 28.1224C71.416 28.1712 71.5188 28.3088 71.5252 28.4658C71.5305 28.6117 71.452 28.7458 71.3245 28.8136C71.3145 28.8188 71.3044 28.8237 71.2936 28.8284L67.6813 30.3452C67.4892 30.4265 67.2678 30.3365 67.1875 30.1444L67.1874 30.1444Z" fill="black"/>
    <path d="M25.5814 16.2564L33.5764 0.859404L21.0752 4.21183L12.2639 27.7304L19.5908 25.7656L15.0773 38.9527L10.8672 35.517L11.8144 53.3263L25.4783 40.5814L19.9813 40.5832L34.328 13.9113L25.5814 16.2564Z" fill="black"/>
</svg>
