<svg width="76" height="73" viewBox="0 0 76 73" fill="none" xmlns="http://www.w3.org/2000/svg">
<path d="M37.9977 28.2521C33.307 28.2521 29.4876 32.0688 29.4876 36.7627C29.4876 41.456 33.3069 45.2773 37.9977 45.2773C42.693 45.2773 46.5103 41.456 46.5103 36.7627C46.5097 32.0693 42.693 28.2521 37.9977 28.2521Z" fill="black"/>
<path d="M37.9981 22.5778C40.582 22.5778 43.0027 23.2691 45.0899 24.4844L56.396 4.89795C45.377 -1.40354 31.4028 -1.85937 19.6074 4.9026L30.9088 24.4837C32.9955 23.2685 35.4194 22.5772 37.9986 22.5772L37.9981 22.5778Z" fill="black"/>
<path d="M45.0897 49.0434L56.6065 68.9946C68.3596 62.1558 74.9492 49.8285 75.0034 37.1317H52.1764C52.0453 42.2178 49.2249 46.6447 45.0892 49.0433L45.0897 49.0434Z" fill="black"/>
<path d="M23.8205 37.1318H0.996134C1.00956 43.3837 2.61102 49.712 5.95789 55.5115C9.30476 61.3117 13.9841 65.8646 19.3895 69L30.9077 49.0435C26.7725 46.6451 23.9516 42.218 23.8205 37.1319V37.1318Z" fill="black"/>
</svg>
