<svg width="90" height="84" viewBox="0 0 90 84" fill="none" xmlns="http://www.w3.org/2000/svg">
<path d="M23.1881 25.179C22.3358 25.179 21.5731 25.0192 20.8998 24.6996C20.2265 24.3757 19.6917 23.9325 19.2954 23.37C18.9033 22.8075 18.6945 22.1641 18.6689 21.4396H20.9701C21.0127 21.9766 21.2449 22.4155 21.6668 22.7564C22.0887 23.093 22.5958 23.2614 23.1881 23.2614C23.6526 23.2614 24.066 23.1548 24.4282 22.9418C24.7904 22.7287 25.0759 22.4325 25.2847 22.0533C25.4935 21.674 25.5958 21.2415 25.5915 20.7557C25.5958 20.2614 25.4914 19.8224 25.2783 19.4389C25.0653 19.0554 24.7733 18.755 24.4026 18.5376C24.0319 18.3161 23.6057 18.2053 23.1242 18.2053C22.7322 18.201 22.3465 18.2734 21.9672 18.4226C21.588 18.5717 21.2876 18.7678 21.066 19.0107L18.9246 18.6591L19.6086 11.9091H27.2023V13.8906H21.5709L21.1938 17.3615H21.2705C21.5134 17.076 21.8564 16.8395 22.2996 16.652C22.7428 16.4602 23.2286 16.3643 23.757 16.3643C24.5496 16.3643 25.257 16.5518 25.8792 16.9268C26.5013 17.2976 26.9914 17.8089 27.3493 18.4609C27.7073 19.1129 27.8863 19.8587 27.8863 20.6982C27.8863 21.5632 27.686 22.3345 27.2854 23.0121C26.8891 23.6854 26.3373 24.2159 25.6299 24.6037C24.9268 24.9872 24.1128 25.179 23.1881 25.179ZM34.8664 25.2493C33.8138 25.2493 32.9104 24.983 32.1562 24.4503C31.4062 23.9134 30.8287 23.1399 30.4239 22.13C30.0233 21.1158 29.8231 19.8949 29.8231 18.4673C29.8273 17.0398 30.0297 15.8253 30.4303 14.8239C30.8351 13.8182 31.4126 13.0511 32.1626 12.5227C32.9168 11.9943 33.8181 11.7301 34.8664 11.7301C35.9147 11.7301 36.816 11.9943 37.5702 12.5227C38.3245 13.0511 38.9019 13.8182 39.3025 14.8239C39.7073 15.8295 39.9097 17.044 39.9097 18.4673C39.9097 19.8991 39.7073 21.1222 39.3025 22.1364C38.9019 23.1463 38.3245 23.9176 37.5702 24.4503C36.8202 24.983 35.9189 25.2493 34.8664 25.2493ZM34.8664 23.2486C35.6846 23.2486 36.3302 22.8459 36.8032 22.0405C37.2805 21.2308 37.5191 20.0398 37.5191 18.4673C37.5191 17.4276 37.4104 16.554 37.1931 15.8466C36.9758 15.1392 36.6689 14.6065 36.2726 14.2486C35.8763 13.8864 35.4076 13.7053 34.8664 13.7053C34.0525 13.7053 33.409 14.1101 32.936 14.9197C32.463 15.7251 32.2243 16.9077 32.2201 18.4673C32.2158 19.5114 32.3202 20.3892 32.5333 21.1009C32.7506 21.8125 33.0574 22.3494 33.4537 22.7116C33.8501 23.0696 34.3209 23.2486 34.8664 23.2486ZM48.3776 11.9091L51.7845 22.2131H51.9188L55.3193 11.9091H57.9273L53.3122 25H50.3847L45.776 11.9091H48.3776ZM62.7773 25.1918C61.8184 25.1918 60.9875 24.9808 60.2844 24.5589C59.5812 24.1371 59.0358 23.5469 58.648 22.7884C58.2645 22.0298 58.0727 21.1435 58.0727 20.1293C58.0727 19.1151 58.2645 18.2266 58.648 17.4638C59.0358 16.701 59.5812 16.1087 60.2844 15.6868C60.9875 15.2649 61.8184 15.054 62.7773 15.054C63.7361 15.054 64.567 15.2649 65.2702 15.6868C65.9733 16.1087 66.5166 16.701 66.9001 17.4638C67.2879 18.2266 67.4818 19.1151 67.4818 20.1293C67.4818 21.1435 67.2879 22.0298 66.9001 22.7884C66.5166 23.5469 65.9733 24.1371 65.2702 24.5589C64.567 24.9808 63.7361 25.1918 62.7773 25.1918ZM62.79 23.3381C63.3099 23.3381 63.7446 23.1953 64.094 22.9098C64.4434 22.62 64.7034 22.2322 64.8738 21.7464C65.0486 21.2607 65.1359 20.7195 65.1359 20.1229C65.1359 19.522 65.0486 18.9787 64.8738 18.4929C64.7034 18.0028 64.4434 17.6129 64.094 17.3232C63.7446 17.0334 63.3099 16.8885 62.79 16.8885C62.2574 16.8885 61.8142 17.0334 61.4605 17.3232C61.1111 17.6129 60.849 18.0028 60.6743 18.4929C60.5038 18.9787 60.4186 19.522 60.4186 20.1229C60.4186 20.7195 60.5038 21.2607 60.6743 21.7464C60.849 22.2322 61.1111 22.62 61.4605 22.9098C61.8142 23.1953 62.2574 23.3381 62.79 23.3381ZM71.7597 11.9091V25H69.4458V11.9091H71.7597ZM79.0418 15.1818V16.9716H73.3976V15.1818H79.0418ZM74.7911 12.8295H77.105V22.0469C77.105 22.358 77.1519 22.5966 77.2457 22.7628C77.3437 22.9247 77.4715 23.0355 77.6292 23.0952C77.7868 23.1548 77.9616 23.1847 78.1533 23.1847C78.2982 23.1847 78.4303 23.174 78.5496 23.1527C78.6732 23.1314 78.767 23.1122 78.8309 23.0952L79.2208 24.9041C79.0972 24.9467 78.9204 24.9936 78.6903 25.0447C78.4644 25.0959 78.1874 25.1257 77.8593 25.1342C77.2797 25.1513 76.7577 25.0639 76.2932 24.8722C75.8287 24.6761 75.4601 24.3736 75.1874 23.9645C74.9189 23.5554 74.7868 23.044 74.7911 22.4304V12.8295ZM88.5963 17.777L86.4869 18.0071C86.4273 17.794 86.3229 17.5938 86.1737 17.4062C86.0289 17.2188 85.8328 17.0675 85.5857 16.9524C85.3385 16.8374 85.036 16.7798 84.678 16.7798C84.1965 16.7798 83.7916 16.8842 83.4635 17.093C83.1396 17.3018 82.9798 17.5724 82.9841 17.9048C82.9798 18.1903 83.0843 18.4226 83.2973 18.6016C83.5146 18.7805 83.8726 18.9276 84.3712 19.0426L86.0459 19.4006C86.9749 19.6009 87.6652 19.9183 88.1169 20.353C88.5729 20.7876 88.803 21.3565 88.8073 22.0597C88.803 22.6776 88.6219 23.223 88.2639 23.696C87.9102 24.1648 87.4181 24.5312 86.7874 24.7955C86.1567 25.0597 85.4323 25.1918 84.6141 25.1918C83.4124 25.1918 82.445 24.9403 81.7121 24.4375C80.9791 23.9304 80.5423 23.2251 80.4017 22.3217L82.6581 22.1044C82.7604 22.5476 82.9777 22.8821 83.3101 23.108C83.6425 23.3338 84.075 23.4467 84.6077 23.4467C85.1574 23.4467 85.5985 23.3338 85.9308 23.108C86.2675 22.8821 86.4358 22.603 86.4358 22.2706C86.4358 21.9893 86.3271 21.7571 86.1098 21.5739C85.8968 21.3906 85.5644 21.25 85.1127 21.152L83.4379 20.8004C82.4962 20.6044 81.7994 20.2741 81.3477 19.8097C80.896 19.3409 80.6723 18.7486 80.6766 18.0327C80.6723 17.4276 80.8364 16.9034 81.1688 16.4602C81.5054 16.0128 81.972 15.6676 82.5686 15.4247C83.1695 15.1776 83.8619 15.054 84.646 15.054C85.7966 15.054 86.7021 15.299 87.3627 15.7891C88.0274 16.2791 88.4387 16.9418 88.5963 17.777Z" fill="black"/>
<path d="M11.8553 17.2486L2.13938 21.7372V19.2159L9.04279 16.2543L8.96467 16.3892V16.0625L9.04279 16.1974L2.13938 13.2358V10.7145L11.8553 15.2031V17.2486Z" fill="black"/>
<path d="M11.7044 23V25.0526H2.30806V23H11.7044Z" fill="black"/>
<path fill-rule="evenodd" clip-rule="evenodd" d="M45.5 84C58.2025 84 68.5 73.7025 68.5 61C68.5 48.2975 58.2025 38 45.5 38C32.7975 38 22.5 48.2975 22.5 61C22.5 73.7025 32.7975 84 45.5 84ZM38.8997 74.7374L54.5933 61.1197L54.5931 61.1196C54.8659 60.8646 55.0282 60.4769 54.9395 60.1014C54.8505 59.7256 54.5282 59.4369 54.1585 59.3499L48.9484 58.1233L53.112 47.8221C53.29 47.3674 53.1319 46.8335 52.7344 46.5625C52.337 46.2915 51.7933 46.3409 51.4294 46.6809L37.0882 60.5815C36.8075 60.8699 36.7205 61.2397 36.8094 61.6155C36.8981 61.9913 37.1869 62.2721 37.5567 62.3591L42.6324 63.5541L37.2903 73.4359C37.0452 73.8749 37.1616 74.4346 37.5512 74.7391C37.6699 74.8381 37.8301 74.9112 37.9645 74.9428C38.3005 75.0219 38.6345 74.9588 38.8997 74.7374Z" fill="black"/>
</svg>
