<svg width="134" height="71" viewBox="0 0 134 71" fill="none" xmlns="http://www.w3.org/2000/svg">
<path d="M55.5861 11.2452C55.5861 14.1943 53.1953 16.5851 50.2462 16.5851C47.297 16.5851 44.9062 14.1943 44.9062 11.2452C44.9062 8.29605 47.297 5.90527 50.2462 5.90527C53.1953 5.90527 55.5861 8.29605 55.5861 11.2452Z" fill="black"/>
<path d="M73.285 44.3512C69.2168 44.0864 67.5835 45.6676 67.3208 47.8196L54.2643 39.8219L51.0582 27.4855C50.8558 26.7092 48.5291 20.197 48.2684 19.8682L43.1746 13.4242C42.7719 12.9148 42.3182 12.7707 40.7505 12.8045C40.7505 12.8045 32.0234 12.8045 31.4433 12.8112C30.8855 12.7993 30.1326 13.6609 29.6539 14.4175L23.2167 23.7518C22.5273 24.7507 22.8775 26.1878 23.9977 26.96L24.4196 27.2519C25.5399 28.0245 27.0072 27.8414 27.6966 26.8419L27.9802 26.4308L32.3741 29.1229L31.9303 29.7665C31.385 30.6526 31.526 33.4377 31.5125 33.8094L31.5229 44.112L24.1897 54.7476C23.417 55.8678 23.699 57.4037 24.8192 58.1759L25.2422 58.4678C26.3625 59.2404 27.898 58.9594 28.6705 57.8377L35.7393 47.5896C36.2695 46.8555 36.9386 45.8092 36.9381 44.8976L36.9589 36.0862L45.288 41.347V56.4397C45.288 57.8004 46.3921 58.905 47.7532 58.905H48.2662C49.6269 58.905 50.7309 57.8019 50.7309 56.4397V53.7701L50.7304 43.9186C51.2055 44.1142 51.744 44.1631 52.2788 44.0252L52.7763 43.8957C53.499 43.7078 54.0567 43.2141 54.3621 42.5928L65.826 49.6155C65.4732 50.0468 65.1808 50.4875 64.9591 50.9313C63.8587 51.0312 62.7161 51.2326 61.5553 51.5432C56.6368 52.859 52.8854 56.1074 52.1195 58.9024H77.1123C82.635 58.9024 87.1122 54.4254 87.1123 48.9027L87.1126 39.7258C80.6508 35.8506 73.1918 40.6216 73.285 44.3512ZM44.7739 26.3761L47.1996 35.4939L41.1136 31.766L44.7739 26.3761ZM33.6253 18.2427L40.0486 18.2459L33.6919 27.2201L29.2933 24.5259L33.6253 18.2427Z" fill="black"/>
<path fill-rule="evenodd" clip-rule="evenodd" d="M19.5 0.905273H0.5V50.9053C0.5 61.951 9.45431 70.9053 20.5 70.9053H113.5C124.546 70.9053 133.5 61.951 133.5 50.9053V0.905273H90.5V51.9053C90.5 57.4281 86.0229 61.9053 80.5 61.9053H29.5C23.9772 61.9053 19.5 57.4281 19.5 51.9053V0.905273Z" fill="black"/>
</svg>
