<svg width="102" height="81" viewBox="0 0 102 81" fill="none" xmlns="http://www.w3.org/2000/svg">
<path fill-rule="evenodd" clip-rule="evenodd" d="M19.9709 27.4316C23.7723 31.2023 23.7916 37.3289 20.0279 41.1303C16.2694 44.9168 10.1297 44.9386 6.34227 41.1723C2.54093 37.4087 2.5129 31.282 6.27831 27.4963C10.042 23.6872 16.1695 23.673 19.9709 27.4315L19.9709 27.4316Z" fill="black"/>
<path d="M44.4691 22.8229C42.6503 22.8518 41.0723 24.0582 40.5574 25.8034L35.8047 38.6365L23.704 43.208C23.6383 43.2369 23.5744 43.2649 23.5087 43.2956L14.6776 47.1461C14.2545 47.3362 13.8628 47.5981 13.522 47.9109L1.3409 59.1741C0.491082 59.9599 0.00399122 61.0647 0.00399122 62.2272V72.7648C-0.213281 78.5075 8.51343 78.5075 8.29632 72.7648V64.0302L15.4329 57.4392L28.5148 77.9399C29.765 79.8883 32.2154 80.6873 34.3663 79.8445L57.9584 70.7376L71.6079 77.0226C77.3771 80.4245 82.2464 71.5145 76.2644 68.499L60.6314 61.1222C59.3724 60.438 57.8909 60.3363 56.5548 60.8471L49.5478 63.5569L54.1043 54.1021H70.6022C77.4208 54.4569 77.4208 44.0348 70.6022 44.3923L51.0476 44.3932C49.1876 44.4019 47.495 45.462 46.6793 47.1337L39.7519 61.5009L31.7944 49.0288L40.6466 45.6698C41.8398 45.2203 42.7624 44.2409 43.1399 43.0197L48.4895 28.2434C49.3673 25.5345 47.319 22.772 44.4699 22.823L44.4691 22.8229Z" fill="black"/>
<path d="M80.4003 31.3137V28.59L88.4237 15.9132H90.695V19.791H89.3101L83.9088 28.35V28.4977H95.1084V31.3137H80.4003ZM89.4209 34.8223V30.4828L89.4578 29.264V15.9132H92.6894V34.8223H89.4209ZM100.93 15.9132V17.7967C100.93 18.3384 100.825 18.9016 100.616 19.4863C100.413 20.0649 100.133 20.6189 99.7757 21.1483C99.4186 21.6715 99.0124 22.1208 98.5569 22.4963L97.0058 21.4899C97.3443 20.979 97.6398 20.4281 97.8921 19.8372C98.1445 19.2401 98.2707 18.5661 98.2707 17.8152V15.9132H100.93Z" fill="black"/>
<path d="M75.3119 23.6454L62.6812 29.4806V26.2029L71.6556 22.3528L71.5541 22.5282V22.1035L71.6556 22.2789L62.6812 18.4288V15.1511L75.3119 20.9863V23.6454Z" fill="black"/>
<path d="M75.6157 30.8223V33.4906H63.4005V30.8223H75.6157Z" fill="black"/>
</svg>
