<svg width="94" height="69" viewBox="0 0 94 69" fill="none" xmlns="http://www.w3.org/2000/svg">
<path d="M74.75 67.5L71.25 62.5L81.75 53L64.75 48.5L74.75 25.5L55.25 35.5L44.75 15.5L39.25 35.5L21.25 27.5L28.75 48.5L12.75 53L25.75 62.5L21.25 67.5L0.75 50L21.25 44L11.25 18L35.75 27.5L43.75 0L58.25 27.5L86.75 14.5L73.25 45.5L93.25 51.5L74.75 67.5Z" fill="black"/>
<path d="M63.25 69H34.25L40.25 63.5L40.75 60.5L30.25 55H40.75V51.5L35.25 40L43.25 49H44.75L47.25 34L49.75 50H52.75L63.75 40L57.25 51.5V55L66.25 57L57.25 59.5V62.5L63.25 69Z" fill="black"/>
</svg>
