<svg width="68" height="72" viewBox="0 0 68 72" fill="none" xmlns="http://www.w3.org/2000/svg">
<path fill-rule="evenodd" clip-rule="evenodd" d="M43.4814 0.234789C43.4814 0.234789 39.8975 11.768 48.8568 22.0759C57.813 32.3839 88.3991 52.6957 45.1356 71.5767C45.1356 71.5767 54.2976 61.9312 49.6821 55.3485C45.0665 48.7654 35.1476 43.8665 36.7988 33.5584C36.7988 33.5584 23.7119 37.5913 29.4973 55.8573C29.4973 55.8573 22.1267 53.8677 19.0242 48.484C19.0242 48.484 14.4429 59.0466 22.8487 71.3978C22.8487 71.3978 -21.5834 55.7019 14.2363 25.2144C14.2363 25.2144 14.9932 35.1653 20.2995 37.9218C20.2995 37.9218 11.5496 10.9778 43.4806 0.234375L43.4814 0.234789Z" fill="black"/>
</svg>
