<svg width="66" height="83" viewBox="0 0 66 83" fill="none" xmlns="http://www.w3.org/2000/svg">
<path d="M28.6965 18.7284L34.1016 31.2647L41.481 31.6332L42.45 32.6022C42.168 33.6512 42.45 33.2916 41.1581 34.4593C41.1581 34.4593 40.1862 35.0245 39.5105 35.0245C38.8349 35.0245 37.9411 35.186 35.115 35.0245H31.399L25.8165 24.3075H25.5204L25.5185 26.3097L25.5323 78.1546C25.5323 80.8495 23.6468 82.1578 21.7612 82.1389C19.8763 82.1181 17.9901 80.7706 17.9901 78.1546L17.9731 48.0673H16.3152L16.3512 78.1546C16.3512 80.8066 14.4283 82.1559 12.5258 82.1389C10.6782 82.1237 8.85315 80.8142 8.85315 78.1546L8.83234 26.2532V24.3071H8.65318L5.51671 43.1643H5.51482C5.24158 44.8209 3.68915 45.6176 2.15436 45.3672C0.621432 45.1169 -0.118731 43.6425 0.126654 42.1556L4.68132 18.7284C4.9544 17.0694 5.60234 15.0633 7.36114 15.0633C7.37754 15.0633 7.39205 15.0627 7.40719 15.0633L24.3049 15.0633C26.0409 14.9251 28.2631 17.1204 28.6965 18.7284Z" fill="black"/>
<path d="M52.593 23.7447H52.4895C52.1005 23.746 51.7269 23.5926 51.451 23.3184C51.1752 23.044 51.0197 22.6714 51.0187 22.2823C51.0179 21.8933 51.1717 21.5199 51.4463 21.2444L51.5239 21.1581C51.6845 20.9966 51.7746 20.778 51.7746 20.5503C51.7746 20.3225 51.6845 20.104 51.5239 19.9424L50.2909 18.7354C50.1293 18.5748 49.9109 18.4847 49.6831 18.4847C49.4553 18.4847 49.2368 18.5748 49.0753 18.7354C48.8024 19.0166 48.4282 19.1768 48.0363 19.1803C47.6444 19.1838 47.2675 19.0302 46.9897 18.7538C46.7119 18.4774 46.5562 18.1013 46.5577 17.7094C46.5577 17.4807 46.4669 17.2614 46.3052 17.0996C46.1434 16.938 45.9242 16.8472 45.6955 16.8472H43.9711C43.7425 16.8472 43.5232 16.938 43.3614 17.0996C43.1997 17.2614 43.1089 17.4807 43.1089 17.7094V17.8128C43.1103 18.2018 42.9569 18.5754 42.6826 18.8513C42.4083 19.1272 42.0356 19.2827 41.6465 19.2836C41.2575 19.2845 40.8842 19.1306 40.6086 18.856L40.5224 18.7784C40.3608 18.6179 40.1423 18.5278 39.9146 18.5278C39.6868 18.5278 39.4682 18.6179 39.3067 18.7784L38.0997 20.0115C37.9391 20.173 37.849 20.3914 37.849 20.6192C37.849 20.847 37.9391 21.0655 38.0997 21.227C38.3809 21.5 38.5411 21.8742 38.5446 22.266C38.5481 22.6579 38.3945 23.0349 38.118 23.3126C37.8416 23.5905 37.4655 23.7461 37.0736 23.7447C36.845 23.7447 36.6257 23.8355 36.4639 23.9971C36.3022 24.1589 36.2114 24.3782 36.2114 24.6068V26.3312C36.2114 26.5599 36.3022 26.7792 36.4639 26.9409C36.6257 27.1026 36.845 27.1934 37.0736 27.1934H37.1771C37.5661 27.1921 37.9397 27.3455 38.2156 27.6197C38.4914 27.8941 38.6469 28.2667 38.6479 28.6558C38.6487 29.0448 38.4949 29.4182 38.2203 29.6937L38.1427 29.78C37.9821 29.9415 37.892 30.1601 37.892 30.3878C37.892 30.6156 37.9821 30.8341 38.1427 30.9957L39.3671 32.2114C39.5286 32.3719 39.7472 32.462 39.9748 32.462C40.2027 32.462 40.4212 32.3719 40.5828 32.2114C40.8542 31.9268 41.2288 31.7632 41.6221 31.7575C42.0154 31.7519 42.3946 31.9045 42.6741 32.1812C42.9538 32.4579 43.1105 32.8354 43.1089 33.2287C43.1089 33.4574 43.1997 33.6767 43.3614 33.8385C43.5232 34.0001 43.7425 34.0909 43.9711 34.0909H45.6955C45.9242 34.0909 46.1434 34.0001 46.3052 33.8385C46.4669 33.6767 46.5577 33.4574 46.5577 33.2287V33.1253C46.5564 32.7363 46.7097 32.3627 46.984 32.0868C47.2584 31.8109 47.631 31.6554 48.0201 31.6545C48.4091 31.6536 48.7824 31.8075 49.058 32.0821L49.1356 32.1597C49.2971 32.3202 49.5157 32.4103 49.7435 32.4103C49.9712 32.4103 50.1897 32.3202 50.3513 32.1597L51.567 30.9353C51.7275 30.7737 51.8176 30.5552 51.8176 30.3275C51.8176 30.0997 51.7275 29.8811 51.567 29.7196C51.2816 29.4474 51.1179 29.0716 51.113 28.6773C51.1082 28.2829 51.2624 27.9033 51.5409 27.624C51.8193 27.3448 52.1986 27.1896 52.593 27.1934C52.8217 27.1934 53.0409 27.1026 53.2027 26.9409C53.3644 26.7792 53.4552 26.5599 53.4552 26.3312V24.6068C53.4552 24.3782 53.3644 24.1589 53.2027 23.9971C53.0409 23.8355 52.8217 23.7446 52.593 23.7446L52.593 23.7447ZM44.8333 28.0556C44.1473 28.0556 43.4893 27.7831 43.0043 27.2981C42.5193 26.813 42.2467 26.155 42.2467 25.4691C42.2467 24.7831 42.5193 24.1251 43.0043 23.64C43.4894 23.1551 44.1473 22.8825 44.8333 22.8825C45.5192 22.8825 46.1772 23.1551 46.6623 23.64C47.1473 24.1252 47.4198 24.7831 47.4198 25.4691C47.4198 26.155 47.1473 26.813 46.6623 27.2981C46.1772 27.783 45.5192 28.0556 44.8333 28.0556Z" fill="black"/>
<path d="M52.5519 43.6742L52.4568 43.6317C52.0988 43.4732 51.8184 43.1788 51.6775 42.8134C51.5367 42.448 51.5469 42.0416 51.7058 41.6837C51.8648 41.3258 52.1595 41.0459 52.5251 40.9055L52.6318 40.8581C52.8457 40.7756 53.0183 40.6117 53.1118 40.4025C53.2054 40.1931 53.2124 39.9553 53.1311 39.7409L52.4938 38.1252C52.4113 37.9113 52.2475 37.7388 52.0382 37.6452C51.8289 37.5516 51.5911 37.5447 51.3767 37.6259C51.0104 37.7723 50.6007 37.7658 50.2391 37.608C49.8776 37.4503 49.5942 37.1543 49.4525 36.7862C49.3107 36.418 49.3222 36.0085 49.4845 35.6489C49.5784 35.4388 49.585 35.2 49.5029 34.9849C49.4206 34.7699 49.2564 34.5964 49.0463 34.5024L47.4616 33.7942C47.2515 33.7002 47.0127 33.6936 46.7976 33.7757C46.5826 33.858 46.409 34.0222 46.3151 34.2324L46.2726 34.3274C46.1141 34.6855 45.8197 34.9658 45.4543 35.1067C45.0889 35.2475 44.6826 35.2374 44.3246 35.0784C43.9668 34.9194 43.6868 34.6247 43.5464 34.2591L43.499 34.1524C43.4165 33.9385 43.2527 33.7659 43.0434 33.6724C42.8341 33.5789 42.5962 33.5719 42.3818 33.6531L40.7661 34.2904C40.5522 34.3729 40.3797 34.5367 40.2861 34.746C40.1925 34.9554 40.1856 35.1931 40.2668 35.4075C40.4132 35.7738 40.4067 36.1835 40.2489 36.5451C40.0912 36.9067 39.7952 37.19 39.4271 37.3317C39.059 37.4735 38.6494 37.462 38.2898 37.2997C38.0797 37.2058 37.8409 37.1992 37.6258 37.2813C37.4108 37.3636 37.2373 37.5278 37.1434 37.7379L36.4351 39.3226C36.3412 39.5328 36.3345 39.7716 36.4167 39.9866C36.4989 40.2017 36.6631 40.3752 36.8733 40.4691L36.9683 40.5116C37.3264 40.6702 37.6067 40.9645 37.7476 41.3299C37.8884 41.6953 37.8783 42.1017 37.7194 42.4596C37.5603 42.8175 37.2656 43.0974 36.9001 43.2378L36.7933 43.2852C36.5794 43.3677 36.4069 43.5316 36.3133 43.7408C36.2198 43.9502 36.2128 44.188 36.294 44.4024L36.9199 46.0225C37.0024 46.2364 37.1662 46.409 37.3754 46.5025C37.5848 46.5961 37.8226 46.6031 38.037 46.5218C38.4034 46.3718 38.8148 46.3753 39.1786 46.5317C39.5424 46.6881 39.8281 46.9841 39.9714 47.3531C40.1147 47.7223 40.1037 48.1336 39.9407 48.4944C39.8468 48.7045 39.8402 48.9434 39.9223 49.1584C40.0045 49.3734 40.1688 49.547 40.3789 49.6409L41.9636 50.3492C42.1737 50.4431 42.4125 50.4497 42.6276 50.3676C42.8426 50.2853 43.0161 50.1211 43.11 49.911L43.1525 49.8159C43.3111 49.4579 43.6055 49.1775 43.9709 49.0366C44.3363 48.8958 44.7426 48.9059 45.1006 49.0649C45.4584 49.2239 45.7383 49.5186 45.8788 49.8842L45.9182 49.9873C46.0007 50.2013 46.1646 50.3738 46.3739 50.4674C46.5832 50.5609 46.821 50.5679 47.0354 50.4867L48.6555 49.8608C48.8694 49.7783 49.042 49.6145 49.1355 49.4052C49.2291 49.1959 49.236 48.958 49.1548 48.7436C49.0044 48.3763 49.0083 47.9637 49.1658 47.5994C49.3233 47.2349 49.621 46.9494 49.9916 46.8071C50.3622 46.6649 50.7745 46.678 51.1353 46.8435C51.3455 46.9375 51.5843 46.9441 51.7994 46.862C52.0144 46.7797 52.1879 46.6155 52.2818 46.4053L52.9901 44.8207C53.084 44.6105 53.0906 44.3717 53.0085 44.1566C52.9262 43.9416 52.762 43.7681 52.5519 43.6742ZM43.6501 44.4487C43.0198 44.1669 42.527 43.6462 42.2805 43.0012C42.034 42.3562 42.0538 41.6396 42.3355 41.0092C42.6173 40.3789 43.138 39.8861 43.783 39.6396C44.428 39.3931 45.1446 39.4129 45.775 39.6946C46.4054 39.9764 46.8981 40.4971 47.1446 41.1421C47.3911 41.7871 47.3713 42.5037 47.0896 43.1341C46.8078 43.7645 46.2871 44.2572 45.6421 44.5037C44.9971 44.7502 44.2805 44.7304 43.6501 44.4487Z" fill="black"/>
<path d="M17.2467 12.3853C20.4677 12.3853 23.0786 9.80515 23.0786 6.62266C23.0786 3.44146 20.4677 0.861328 17.2467 0.861328C14.0219 0.861328 11.4092 3.44146 11.4092 6.62266C11.4092 9.80515 14.0221 12.3853 17.2467 12.3853Z" fill="black"/>
<line x1="57.4365" y1="33.4561" x2="64.4198" y2="33.4561" stroke="black" stroke-width="3" stroke-linecap="round"/>
<line x1="57.1103" y1="28.5831" x2="63.2885" y2="25.328" stroke="black" stroke-width="3" stroke-linecap="round"/>
<line x1="1.5" y1="-1.5" x2="8.48323" y2="-1.5" transform="matrix(0.884716 0.466131 0.466131 -0.884716 56.4824 36.9834)" stroke="black" stroke-width="3" stroke-linecap="round"/>
</svg>
