<svg width="104" height="78" viewBox="0 0 104 78" fill="none" xmlns="http://www.w3.org/2000/svg">
<path d="M58.4543 19.7143V32.8052H56.0828V22.0218H56.0061L52.9443 23.9778V21.8045L56.1979 19.7143H58.4543ZM66.3293 32.9842C65.477 32.9842 64.7142 32.8244 64.0409 32.5047C63.3676 32.1809 62.8328 31.7377 62.4365 31.1752C62.0444 30.6127 61.8356 29.9692 61.8101 29.2448H64.1112C64.1538 29.7817 64.3861 30.2207 64.8079 30.5616C65.2298 30.8982 65.7369 31.0665 66.3293 31.0665C66.7937 31.0665 67.2071 30.96 67.5693 30.7469C67.9315 30.5339 68.217 30.2377 68.4258 29.8584C68.6346 29.4792 68.7369 29.0467 68.7327 28.5609C68.7369 28.0665 68.6325 27.6276 68.4194 27.2441C68.2064 26.8606 67.9145 26.5601 67.5437 26.3428C67.173 26.1212 66.7469 26.0104 66.2653 26.0104C65.8733 26.0062 65.4876 26.0786 65.1084 26.2278C64.7291 26.3769 64.4287 26.5729 64.2071 26.8158L62.0658 26.4643L62.7497 19.7143H70.3435V21.6958H64.7121L64.3349 25.1667H64.4116C64.6545 24.8812 64.9976 24.6447 65.4408 24.4572C65.8839 24.2654 66.3697 24.1695 66.8981 24.1695C67.6908 24.1695 68.3981 24.357 69.0203 24.732C69.6425 25.1028 70.1325 25.6141 70.4905 26.2661C70.8484 26.9181 71.0274 27.6638 71.0274 28.5033C71.0274 29.3684 70.8271 30.1397 70.4266 30.8172C70.0302 31.4905 69.4784 32.0211 68.771 32.4089C68.0679 32.7924 67.254 32.9842 66.3293 32.9842ZM78.0075 33.0545C76.955 33.0545 76.0516 32.7881 75.2973 32.2555C74.5473 31.7185 73.9699 30.9451 73.565 29.9351C73.1645 28.9209 72.9642 27.7001 72.9642 26.2725C72.9685 24.8449 73.1709 23.6305 73.5714 22.629C73.9763 21.6234 74.5537 20.8563 75.3037 20.3279C76.0579 19.7995 76.9592 19.5353 78.0075 19.5353C79.0558 19.5353 79.9571 19.7995 80.7114 20.3279C81.4656 20.8563 82.043 21.6234 82.4436 22.629C82.8484 23.6347 83.0508 24.8492 83.0508 26.2725C83.0508 27.7043 82.8484 28.9273 82.4436 29.9415C82.043 30.9515 81.4656 31.7228 80.7114 32.2555C79.9614 32.7881 79.0601 33.0545 78.0075 33.0545ZM78.0075 31.0538C78.8257 31.0538 79.4713 30.6511 79.9443 29.8457C80.4216 29.036 80.6602 27.8449 80.6602 26.2725C80.6602 25.2327 80.5516 24.3592 80.3342 23.6518C80.1169 22.9444 79.8101 22.4117 79.4138 22.0538C79.0175 21.6915 78.5487 21.5104 78.0075 21.5104C77.1936 21.5104 76.5501 21.9153 76.0771 22.7249C75.6041 23.5303 75.3655 24.7128 75.3612 26.2725C75.3569 27.3165 75.4614 28.1944 75.6744 28.906C75.8918 29.6177 76.1986 30.1546 76.5949 30.5168C76.9912 30.8748 77.4621 31.0538 78.0075 31.0538ZM85.1618 23.6262V22.9486C85.1618 22.3393 85.2875 21.8002 85.5389 21.3315C85.7946 20.8584 86.1547 20.4877 86.6192 20.2192C87.0837 19.9508 87.6334 19.8165 88.2683 19.8165C89.2272 19.8165 89.9835 20.1106 90.5375 20.6986C91.0915 21.2824 91.3685 22.0324 91.3685 22.9486V23.6262C91.3685 24.2313 91.2449 24.7682 90.9978 25.237C90.7506 25.7015 90.3969 26.068 89.9367 26.3364C89.4764 26.6006 88.9289 26.7327 88.2939 26.7327C87.3266 26.7327 86.5617 26.443 85.9992 25.8634C85.4409 25.2796 85.1618 24.5339 85.1618 23.6262ZM86.7279 22.9486V23.6262C86.7279 24.1503 86.8578 24.585 87.1178 24.9302C87.3777 25.2711 87.7698 25.4415 88.2939 25.4415C88.801 25.4415 89.1781 25.2711 89.4253 24.9302C89.6767 24.585 89.8024 24.1503 89.8024 23.6262V22.9486C89.8024 22.4373 89.6767 22.0047 89.4253 21.6511C89.1739 21.2974 88.7882 21.1205 88.2683 21.1205C87.757 21.1205 87.3713 21.2974 87.1114 21.6511C86.8557 22.0047 86.7279 22.4373 86.7279 22.9486ZM93.8103 32.8052V19.7143H102.197V21.7022H96.1817V25.2562H101.621V27.2441H96.1817V32.8052H93.8103Z" fill="black"/>
<path d="M44.9066 25.8038L35.1907 30.2924V27.7711L42.0941 24.8094L42.016 24.9444V24.6177L42.0941 24.7526L35.1907 21.791V19.2697L44.9066 23.7583V25.8038Z" fill="black"/>
<path d="M44.7555 31.4053V33.4578H35.3592V31.4053H44.7555Z" fill="black"/>
<path fill-rule="evenodd" clip-rule="evenodd" d="M29.4568 46.2215V12.1345C29.5033 9.17278 28.3589 6.31615 26.2808 4.20489C24.2028 2.09425 21.3642 0.905273 18.4019 0.905273C15.4396 0.905273 12.601 2.09429 10.523 4.20489C8.44433 6.31615 7.30001 9.17278 7.34636 12.1345V46.2215C3.56683 49.2871 1.22982 53.7835 0.892369 58.638C0.554975 63.4925 2.24857 68.2691 5.56823 71.8271C8.88789 75.385 13.5352 77.4053 18.4019 77.4053C23.2678 77.4053 27.9159 75.3852 31.2356 71.8271C34.5545 68.2691 36.2481 63.4925 35.9114 58.638C35.574 53.7835 33.2365 49.2869 29.457 46.2215H29.4568ZM18.4 74.4896C14.2704 74.489 10.3334 72.7435 7.56005 69.684C4.78609 66.6245 3.4341 62.5353 3.83661 58.4257C4.23979 54.316 6.35949 50.5673 9.67487 48.1041L10.2615 47.6689V43.4053H12.7503V40.8553H10.2615V36.6053H12.7503V34.0553H10.2615V29.8053H12.7503V27.2553H10.2615V23.0053H12.7503V20.4553H10.2615V16.2053H12.7503V13.6553H10.2615V12.1357C10.2217 9.95131 11.0613 7.84252 12.5925 6.28349C14.1232 4.72446 16.2169 3.84574 18.4019 3.84574C20.5868 3.84574 22.68 4.72453 24.2112 6.28349C25.7419 7.84252 26.5821 9.95131 26.5422 12.1357V47.6689L27.1289 48.1041C30.4437 50.5672 32.564 54.3166 32.9665 58.4269C33.3691 62.5367 32.0165 66.6257 29.242 69.6852C26.468 72.7447 22.5303 74.4896 18.4002 74.4896H18.4ZM21.0588 50.7918V11.6198C21.0588 10.581 20.5047 9.6213 19.6054 9.10229C18.7061 8.58322 17.598 8.58322 16.6987 9.10229C15.7994 9.62136 15.2453 10.581 15.2453 11.6198V50.7918C12.2716 51.7255 9.92793 54.0312 8.94539 56.9892C7.96278 59.9467 8.46073 63.1969 10.2847 65.7245C12.1087 68.2522 15.0353 69.7497 18.1522 69.7497C21.269 69.7497 24.1963 68.2523 26.0203 65.7245C27.8437 63.1969 28.3421 59.9465 27.3596 56.9892C26.377 54.031 24.0328 51.7255 21.059 50.7918H21.0588Z" fill="black"/>
</svg>
