<svg xmlns="http://www.w3.org/2000/svg" width="94" height="75" viewBox="0 0 94 75" fill="none">
    <path d="M36.2623 23.4648C36.2623 16.1987 30.3436 10.2798 23.0773 10.2798C15.8112 10.2798 9.89233 16.1989 9.89233 23.4648C9.89233 30.7307 15.8114 36.6498 23.0773 36.6498C30.3432 36.6498 36.2623 30.7307 36.2623 23.4648ZM18.1209 33.137L20.4789 30.2016C21.8263 28.5172 24.3766 28.5172 25.7239 30.2016L28.0819 33.137C26.5903 33.907 24.9059 34.34 23.1255 34.34C21.2969 34.34 19.6125 33.907 18.1208 33.137H18.1209ZM25.8204 23.4648C25.8204 24.9564 24.6173 26.2078 23.0773 26.2078C21.5373 26.2078 20.3343 25.0048 20.3343 23.4648C20.3343 21.9247 21.5373 20.7217 23.0773 20.7217C24.6173 20.7217 25.8204 21.973 25.8204 23.4648ZM30.7284 31.2122L28.6594 28.0361C27.5044 26.2558 28.2744 23.8014 30.2954 23.0797L33.8081 21.7324C33.9044 22.3097 33.9524 22.8873 33.9524 23.4647C33.9524 26.4964 32.7494 29.239 30.7284 31.2121L30.7284 31.2122ZM32.7977 18.5565L29.1407 19.5672C27.0717 20.1445 25.0023 18.6528 24.906 16.4875L24.7136 12.7341C28.2744 13.2634 31.2577 15.4768 32.7977 18.5565H32.7977ZM21.4413 12.7341L21.249 16.4875C21.1526 18.6528 19.0836 20.1446 17.0143 19.5672L13.3572 18.5565C14.8969 15.4768 17.8803 13.2634 21.4413 12.7341H21.4413ZM12.2022 23.4649C12.2022 22.8876 12.2502 22.31 12.3465 21.7326L15.8592 23.08C17.8803 23.85 18.6502 26.256 17.4952 28.0364L15.4262 31.164C13.4052 29.2394 12.2022 26.4967 12.2022 23.4649H12.2022Z" fill="black"/>
    <path d="M44.9714 24.0369L43.8852 23.7984V23.5123V23.2738L44.9714 23.0353C45.2547 22.9878 45.4438 22.7014 45.3964 22.4153L45.1131 19.8879C45.0659 19.6019 44.8297 19.3634 44.5464 19.411H43.4602C43.4131 19.2204 43.3657 19.0294 43.3185 18.8864L44.3105 18.4573C44.5939 18.3618 44.6884 18.0282 44.5939 17.7897L43.8381 15.3578C43.7436 15.0717 43.4602 14.9287 43.1769 14.9763L42.1379 15.2148C42.0433 15.0242 41.9962 14.8808 41.9016 14.7378L42.7991 14.0702C43.0353 13.9271 43.0824 13.5932 42.9408 13.355L41.7597 11.1138C41.618 10.8753 41.3347 10.7798 41.0514 10.8753L40.0594 11.3523C39.9648 11.2092 39.8232 11.0662 39.7286 10.9232L40.4844 10.1126C40.6731 9.92196 40.6731 9.58799 40.4844 9.3495L38.7841 7.44223C38.5953 7.25163 38.2646 7.20373 38.0283 7.34677L37.1309 8.01435C36.9892 7.87132 36.8476 7.77586 36.753 7.63282L37.3197 6.67919C37.4613 6.44069 37.4142 6.10705 37.178 5.96403L35.1473 4.48585C34.9111 4.29525 34.5807 4.34281 34.3916 4.58131L33.6836 5.3916C33.5419 5.29614 33.4003 5.201 33.2112 5.10554L33.5419 4.05644C33.6365 3.77038 33.4948 3.48431 33.2586 3.38885L30.9443 2.33976C30.708 2.24429 30.3776 2.33976 30.2359 2.57826L29.6693 3.5319C29.4805 3.48433 29.3385 3.38886 29.1497 3.3413L29.2914 2.2446C29.3385 1.95854 29.1498 1.72004 28.8664 1.62458L26.4101 1.10002C26.1267 1.05245 25.8434 1.19548 25.7489 1.48155L25.4655 2.53064C25.2768 2.53064 25.0877 2.48308 24.946 2.48308L24.8514 1.38638C24.8043 1.10031 24.5681 0.861816 24.2848 0.861816H21.7816C21.4983 0.861816 21.2621 1.10031 21.215 1.38638L21.0733 2.48273C20.8845 2.48273 20.6954 2.5303 20.5538 2.5303L20.223 1.48121C20.1284 1.19547 19.8451 1.05211 19.5618 1.10001L17.1058 1.62457C16.8224 1.67214 16.6333 1.95854 16.6808 2.24459L16.8224 3.34129C16.6337 3.38885 16.4917 3.48432 16.3029 3.53189L15.7362 2.57825C15.5946 2.33975 15.3113 2.24429 15.0279 2.33975L12.7136 3.38885C12.4774 3.48431 12.3357 3.81794 12.4303 4.05643L12.761 5.10553C12.6194 5.20099 12.4303 5.29613 12.2886 5.39159L11.5329 4.53341C11.3441 4.34281 11.0133 4.29492 10.7771 4.43795L8.79347 5.91613C8.55726 6.10673 8.51015 6.39313 8.65181 6.63129L9.21846 7.58492C9.0768 7.72796 8.93514 7.82342 8.84058 7.96645L7.89608 7.2992C7.65986 7.1086 7.32942 7.15617 7.14033 7.39466L5.44006 9.30194C5.25129 9.49254 5.25129 9.8265 5.44006 10.065L6.19581 10.8756C6.10126 11.0186 5.9596 11.1617 5.86504 11.3047L4.87305 10.8277C4.63684 10.7322 4.3064 10.8277 4.16474 11.0662L2.88946 13.2599C2.7478 13.4984 2.79491 13.8321 3.03112 13.9751L3.92857 14.6427C3.83402 14.7857 3.78691 14.9766 3.69236 15.1197L2.70104 14.9288C2.41771 14.8812 2.13439 15.0242 2.03984 15.3103L1.28409 17.7422C1.18954 18.0283 1.3312 18.3143 1.56742 18.4098L2.55941 18.8389C2.5123 19.0295 2.46486 19.1728 2.41775 19.3634H1.33155C1.04822 19.3634 0.812008 19.554 0.764897 19.8404L0.481569 22.3678C0.434459 22.6539 0.623233 22.8924 0.90656 22.9878L1.99276 23.2263V23.5124V23.7509L0.953368 23.9894C0.670041 24.0369 0.480937 24.3233 0.528377 24.6094L0.811705 27.1368C0.858815 27.4228 1.09503 27.6613 1.37836 27.6138H2.46456C2.51167 27.8044 2.55911 27.9953 2.60622 28.1383L1.61423 28.5674C1.3309 28.6629 1.23635 28.9965 1.3309 29.235L2.08665 31.6669C2.1812 31.953 2.46453 32.096 2.74785 32.0484L3.7869 31.8099C3.88145 32.0005 3.92856 32.1439 4.02311 32.2869L3.12567 32.9545C2.88945 33.0976 2.84234 33.4315 2.984 33.6697L4.25929 35.8634C4.40095 36.1019 4.68428 36.1974 4.9676 36.1019L5.95959 35.6249C6.05414 35.768 6.1958 35.911 6.29036 36.054L5.53461 36.8646C5.34583 37.0552 5.34583 37.3892 5.53461 37.6277L7.23487 39.535C7.42365 39.7256 7.75441 39.7735 7.99062 39.6304L8.88807 38.9628C9.02973 39.1059 9.17139 39.2013 9.26595 39.3444L8.69929 40.298C8.55763 40.5365 8.60474 40.8701 8.84095 41.0132L10.8717 42.4913C11.1079 42.6819 11.4383 42.6344 11.6274 42.3959L12.3832 41.5377C12.5248 41.6332 12.6665 41.7283 12.8556 41.8238L12.5248 42.8729C12.4303 43.1589 12.5719 43.445 12.8082 43.5405L15.1225 44.5895C15.3587 44.685 15.6891 44.5895 15.8308 44.3511L16.3974 43.3974C16.5862 43.445 16.7282 43.5404 16.917 43.588L16.7753 44.6847C16.7282 44.9708 16.917 45.2093 17.2003 45.3047L19.6563 45.8293C19.9397 45.8769 20.223 45.7338 20.3175 45.4478L20.6483 44.3987C20.8371 44.3987 21.0262 44.4462 21.1678 44.4462L21.2624 45.5429C21.3095 45.829 21.5457 46.0675 21.8291 46.0675H24.3322C24.6155 46.0675 24.8518 45.829 24.8989 45.5429L24.9934 44.4462C25.1822 44.4462 25.3713 44.3987 25.513 44.3987L25.8437 45.4478C25.9383 45.7338 26.2216 45.8769 26.5049 45.8293L28.961 45.3047C29.2443 45.2572 29.4334 44.9708 29.3859 44.6847L29.2443 43.588C29.4331 43.5404 29.5751 43.445 29.7638 43.3974L30.3305 44.3511C30.4721 44.5895 30.7555 44.685 31.0388 44.5895L33.3531 43.5405C33.5893 43.445 33.731 43.1114 33.6365 42.8729L33.3057 41.8238C33.4473 41.7283 33.6365 41.6332 33.7781 41.5377L34.5339 42.3959C34.7226 42.5865 35.0534 42.6344 35.2896 42.4913L37.3203 41.0132C37.5565 40.8226 37.6036 40.5362 37.462 40.298L36.8953 39.3444C37.037 39.2013 37.1787 39.1059 37.2732 38.9628L38.1707 39.6304C38.4069 39.821 38.7373 39.7735 38.9264 39.535L40.6267 37.6277C40.8154 37.4371 40.8154 37.1031 40.6267 36.8646L39.8709 36.054C39.9655 35.911 40.1071 35.768 40.2017 35.6249L41.1937 36.1019C41.4299 36.1974 41.7603 36.1019 41.902 35.8634L43.1773 33.6697C43.3189 33.4312 43.2718 33.0976 43.0356 32.9545L42.1382 32.2869C42.2327 32.1439 42.2798 31.953 42.3744 31.8099L43.4606 32.0484C43.7439 32.096 44.0272 31.953 44.1218 31.6669L44.8775 29.235C44.9721 28.9489 44.8304 28.6629 44.5942 28.5674L43.6022 28.1383C43.6493 27.9477 43.6968 27.8044 43.7439 27.6138H44.8301C45.1134 27.6138 45.3496 27.4232 45.3967 27.1368L45.68 24.6094C45.3964 24.3706 45.2076 24.0845 44.9714 24.0369L44.9714 24.0369ZM8.08508 23.5123C8.08508 15.2149 14.7445 8.49121 22.9624 8.49121C31.1804 8.49121 37.8397 15.2147 37.8397 23.5123C37.8397 31.81 31.1806 38.5334 22.9624 38.5334C14.7442 38.5334 8.08508 31.81 8.08508 23.5123Z" fill="black"/>
    <path fill-rule="evenodd" clip-rule="evenodd" d="M60.6017 8.40275C60.5574 7.29907 61.4162 6.36844 62.5199 6.32414L73.9227 5.86639C75.0264 5.82208 75.957 6.68087 76.0013 7.78455L76.3639 16.8167C77.266 18.7016 78.3538 20.5001 79.6403 22.1472C80.6039 23.373 81.6902 24.5125 82.9433 25.4459C83.6243 25.9607 84.4154 26.3112 85.2302 26.557C86.3834 26.9081 87.5763 27.0519 88.7691 27.1956L88.7691 27.1956L88.7692 27.1957C89.4487 27.2776 90.1282 27.3595 90.8004 27.4797C91.4323 27.6105 92.1059 27.767 92.5916 28.2201C93.1076 28.7516 93.2175 29.525 93.2709 30.2313C93.2852 30.256 93.3 30.2809 93.3149 30.306L93.3152 30.3065C93.444 30.5232 93.5827 30.7566 93.501 31.0174C93.4941 31.0375 93.4871 31.0582 93.48 31.0792C93.4025 31.3095 93.3092 31.5864 93.0583 31.659C90.9971 32.3954 88.8663 32.9444 86.6993 33.257C85.1776 33.4712 83.6329 33.5655 82.0988 33.4372C80.0331 33.2737 78.0118 32.8064 75.9965 32.3404L75.9964 32.3404C75.7528 32.2841 75.5093 32.2278 75.2658 32.1721C73.5331 31.7645 71.7564 31.455 69.9691 31.5435C69.9596 31.8183 69.9507 32.0932 69.9417 32.3681C69.9328 32.6428 69.9238 32.9176 69.9143 33.1923C68.2878 33.1964 66.6611 33.1676 65.0385 33.0541C63.762 32.9679 62.4865 32.7777 61.2606 32.4042C61.2354 31.5431 61.2138 30.6794 61.2747 29.8189C61.2801 29.5724 61.4332 29.3708 61.5755 29.1834C60.9484 28.2807 60.5936 27.1755 60.6553 26.0714C60.7042 24.9424 60.9359 23.841 61.1773 22.7408L61.1763 22.7143C72.7787 25.9867 73.5289 24.5471 71.6884 24.5471C70.0147 24.5471 64.0174 22.7754 61.228 21.8896C61.1995 21.8818 61.1709 21.8739 61.1422 21.866L60.6017 8.40275Z" fill="black"/>
    <path fill-rule="evenodd" clip-rule="evenodd" d="M46.5856 44.8116L41.5334 53.6016H72.141L67.0888 44.8116H46.5856ZM69.0092 43.1187C69.0308 43.1525 69.0517 43.1869 69.0719 43.222L75.0377 53.6016H76.2001C77.3047 53.6016 78.2001 54.497 78.2001 55.6016V68.6701H72.5494V71.8095C72.5494 73.5432 71.1439 74.9487 69.4101 74.9487C67.6763 74.9487 66.2708 73.5432 66.2708 71.8094V68.6701H47.4351V71.8095C47.4351 73.5432 46.0296 74.9487 44.2958 74.9487C42.5621 74.9487 41.1565 73.5432 41.1565 71.8094V68.6701H35.5059V55.6016C35.5059 54.497 36.4013 53.6016 37.5059 53.6016H38.6367L44.6027 43.2218C44.6623 43.1181 44.7281 43.0203 44.7995 42.9285C45.4508 41.8022 46.6684 41.0444 48.063 41.0444H65.643C67.1147 41.0444 68.3893 41.8884 69.0092 43.1187Z" fill="black"/>
    <circle cx="69.4102" cy="61.1358" r="3.76714" fill="white"/>
    <circle cx="44.2959" cy="61.1358" r="3.76714" fill="white"/>
</svg>
