<svg width="116" height="70" viewBox="0 0 116 70" fill="none" xmlns="http://www.w3.org/2000/svg">
<path fill-rule="evenodd" clip-rule="evenodd" d="M109.428 45.8494C102.225 44.553 95.0224 44.265 87.8195 44.1207C84.6505 40.6637 81.4809 37.2062 78.1677 33.8928C77.0156 32.7407 77.1593 32.7407 74.9988 32.7407H54.1115C51.6623 32.7407 49.6462 34.7575 49.6462 37.2061V61.9837H80.0418L85.66 52.6205V45.8501H85.372C85.0839 45.9945 84.7959 45.9945 84.5079 45.9945H81.4826C80.7622 45.9945 80.3305 45.8501 79.8981 45.4184L79.3221 44.41L68.0858 44.2657C67.2217 44.2657 66.5013 43.5453 66.5013 42.6812V36.6307C66.5013 35.7666 67.2217 35.1899 68.0858 35.1899H75.2883C75.8644 35.1899 76.2967 35.3342 76.5848 35.7659L81.7705 41.5278H82.9226C83.355 41.5278 83.643 41.6721 83.7867 41.8158C84.3628 42.3919 84.9388 42.8242 85.3712 43.2566C85.6592 43.4009 85.6592 43.5446 85.8035 43.6889L86.6676 44.1213V53.0534L81.3375 61.9849H85.6591C85.6591 57.0872 89.4049 52.7654 94.7343 52.7654C99.9201 52.7654 103.809 57.087 103.809 61.9849H115.478V57.6633C115.045 56.5112 113.317 56.0788 112.309 56.0788C112.453 52.6218 112.597 50.4607 112.164 48.3002C111.444 46.5714 110.58 46.1397 109.427 45.851L109.428 45.8494ZM110.436 51.9C109.284 50.7479 106.835 48.2986 105.394 47.1459C107.699 47.1459 109.571 47.2903 110.148 48.5867C110.58 49.3071 110.58 51.1796 110.436 51.9L110.436 51.9ZM62.8991 35.1905H53.5359C52.8155 35.1905 52.0951 35.9109 52.0951 36.6313V42.6818C52.0951 43.5459 52.8155 44.2663 53.5359 44.2663H62.8991C63.7631 44.2663 64.4835 43.5459 64.4835 42.6818V36.6313C64.4835 35.9109 63.7631 35.1905 62.8991 35.1905Z" fill="black"/>
<path fill-rule="evenodd" clip-rule="evenodd" d="M48.6372 44.5518H2.25139V56.0761H1.24297C0.666916 56.0761 0.522579 56.2205 0.522579 56.6522V61.9823H15.504C15.3596 57.0846 19.2497 52.7628 24.5791 52.7628C29.9092 52.7628 33.6543 57.0844 33.6543 61.9823H48.6357V44.5519L48.6372 44.5518ZM7.58199 47.1446H6.28556C5.56517 47.1446 4.98911 47.577 4.98911 48.2967V52.0425C4.98911 52.6185 5.56517 53.1946 6.28556 53.1946H7.58199C8.30238 53.1946 8.87844 52.6185 8.87844 52.0425V48.2967C8.87844 47.5764 8.30238 47.1446 7.58199 47.1446Z" fill="black"/>
<path fill-rule="evenodd" clip-rule="evenodd" d="M0.523827 62.9907V65.4399H16.2255C15.7931 64.7195 15.6494 63.8554 15.5051 62.9907H0.523827ZM33.6554 62.9907C33.511 63.8548 33.3674 64.7195 32.935 65.4399H86.379C86.091 64.5758 85.803 63.8554 85.6586 62.9907H33.6548H33.6554ZM103.809 62.9907C103.665 63.8548 103.521 64.7195 103.088 65.4399H114.037C114.469 65.4399 115.478 64.8639 115.478 63.8554V62.9914H103.809L103.809 62.9907Z" fill="black"/>
<path fill-rule="evenodd" clip-rule="evenodd" d="M94.7331 53.916C99.1984 53.916 102.8 57.373 102.8 61.839C102.8 66.3043 99.1984 69.9057 94.7331 69.9057C90.2678 69.9057 86.6664 66.3043 86.6664 61.839C86.6664 57.3737 90.2678 53.916 94.7331 53.916ZM94.7331 56.9413C91.9959 56.9413 89.8354 59.1018 89.8354 61.839C89.8354 64.5762 91.9959 66.8811 94.7331 66.8811C97.4703 66.8811 99.7752 64.5762 99.7752 61.839C99.7752 59.1018 97.4703 56.9413 94.7331 56.9413Z" fill="black"/>
<path fill-rule="evenodd" clip-rule="evenodd" d="M24.5803 53.916C29.0456 53.916 32.647 57.373 32.647 61.839C32.647 66.3043 29.0456 69.9057 24.5803 69.9057C20.115 69.9057 16.5136 66.3043 16.5136 61.839C16.5136 57.3737 20.115 53.916 24.5803 53.916ZM24.5803 56.9413C21.843 56.9413 19.5382 59.1018 19.5382 61.839C19.5382 64.5762 21.843 66.8811 24.5803 66.8811C27.3175 66.8811 29.478 64.5762 29.478 61.839C29.478 59.1018 27.3175 56.9413 24.5803 56.9413Z" fill="black"/>
<path fill-rule="evenodd" clip-rule="evenodd" d="M92.7179 61.8396C92.7179 62.9532 93.6211 63.8563 94.7347 63.8563C95.8483 63.8563 96.7515 62.9531 96.7515 61.8396C96.7515 60.726 95.8483 59.8228 94.7347 59.8228C93.6211 59.8228 92.7179 60.726 92.7179 61.8396Z" fill="black"/>
<path fill-rule="evenodd" clip-rule="evenodd" d="M22.5631 61.8396C22.5631 62.9532 23.4657 63.8563 24.5799 63.8563C25.6935 63.8563 26.5967 62.9531 26.5967 61.8396C26.5967 60.726 25.6935 59.8228 24.5799 59.8228C23.4656 59.8228 22.5631 60.726 22.5631 61.8396Z" fill="black"/>
<path fill-rule="evenodd" clip-rule="evenodd" d="M84.7935 43.8329C84.2174 43.4005 83.9294 42.9688 83.3527 42.5364C83.2084 42.3921 83.0647 42.3921 82.9203 42.3921H80.0394C79.319 42.3921 79.1753 42.8244 79.6071 43.4005C80.0394 44.1209 80.1831 44.2646 80.6155 44.8413C80.9035 45.1293 81.0478 45.1293 81.4796 45.1293H84.5048C84.7929 45.1293 84.9372 45.1293 84.9372 44.985H85.8013V44.6969L85.0809 44.4089C85.0809 44.2646 84.9365 43.9766 84.7929 43.8329L84.7935 43.8329Z" fill="black"/>
<path d="M40.3645 24.6033C39.444 24.6033 38.6258 24.4456 37.9099 24.1303C37.1983 23.8149 36.6358 23.376 36.2224 22.8135C35.8091 22.251 35.5896 21.6012 35.564 20.8639H37.9675C37.9888 21.2176 38.106 21.5266 38.319 21.7908C38.5321 22.0507 38.8155 22.2532 39.1692 22.398C39.5229 22.5429 39.9192 22.6154 40.3581 22.6154C40.8268 22.6154 41.2423 22.5344 41.6045 22.3725C41.9667 22.2063 42.2501 21.9762 42.4547 21.6821C42.6592 21.3881 42.7594 21.0493 42.7551 20.6658C42.7594 20.2695 42.6571 19.9201 42.4483 19.6175C42.2395 19.3149 41.9369 19.0784 41.5406 18.908C41.1486 18.7375 40.6756 18.6523 40.1216 18.6523H38.9646V16.8242H40.1216C40.5775 16.8242 40.976 16.7453 41.3169 16.5877C41.6621 16.43 41.9327 16.2084 42.1287 15.9229C42.3247 15.6331 42.4206 15.2986 42.4163 14.9193C42.4206 14.5486 42.3375 14.2269 42.167 13.9541C42.0008 13.6772 41.7643 13.462 41.4575 13.3085C41.155 13.1551 40.7991 13.0784 40.39 13.0784C39.9895 13.0784 39.6187 13.1509 39.2778 13.2958C38.9369 13.4407 38.6621 13.6473 38.4533 13.9158C38.2444 14.18 38.1336 14.4953 38.1209 14.8618H35.8389C35.856 14.1289 36.0669 13.4854 36.4717 12.9314C36.8808 12.3732 37.4263 11.9385 38.1081 11.6274C38.7899 11.3121 39.5548 11.1544 40.4028 11.1544C41.2764 11.1544 42.0349 11.3185 42.6784 11.6466C43.3261 11.9705 43.8268 12.4073 44.1805 12.957C44.5342 13.5067 44.7111 14.1139 44.7111 14.7787C44.7153 15.5159 44.498 16.1338 44.0591 16.6324C43.6244 17.131 43.0534 17.457 42.346 17.6104V17.7127C43.2665 17.8405 43.9717 18.1814 44.4618 18.7354C44.9561 19.2851 45.2011 19.9691 45.1969 20.7872C45.1969 21.5202 44.9881 22.1764 44.5704 22.756C44.1571 23.3313 43.5861 23.783 42.8574 24.1111C42.1329 24.4392 41.302 24.6033 40.3645 24.6033ZM52.2297 24.6736C51.1772 24.6736 50.2737 24.4073 49.5195 23.8746C48.7695 23.3377 48.1921 22.5642 47.7872 21.5543C47.3867 20.5401 47.1864 19.3192 47.1864 17.8916C47.1906 16.4641 47.3931 15.2496 47.7936 14.2482C48.1985 13.2425 48.7759 12.4755 49.5259 11.947C50.2801 11.4186 51.1814 11.1544 52.2297 11.1544C53.278 11.1544 54.1793 11.4186 54.9335 11.947C55.6878 12.4755 56.2652 13.2425 56.6658 14.2482C57.0706 15.2539 57.273 16.4684 57.273 17.8916C57.273 19.3235 57.0706 20.5465 56.6658 21.5607C56.2652 22.5706 55.6878 23.3419 54.9335 23.8746C54.1835 24.4073 53.2823 24.6736 52.2297 24.6736ZM52.2297 22.6729C53.0479 22.6729 53.6935 22.2702 54.1665 21.4648C54.6438 20.6551 54.8824 19.4641 54.8824 17.8916C54.8824 16.8519 54.7737 15.9783 54.5564 15.2709C54.3391 14.5635 54.0323 14.0309 53.636 13.6729C53.2397 13.3107 52.7709 13.1296 52.2297 13.1296C51.4158 13.1296 50.7723 13.5344 50.2993 14.3441C49.8263 15.1495 49.5877 16.332 49.5834 17.8916C49.5791 18.9357 49.6835 19.8135 49.8966 20.5252C50.1139 21.2368 50.4208 21.7737 50.8171 22.136C51.2134 22.4939 51.6843 22.6729 52.2297 22.6729ZM63.8872 24.4243V14.6061H66.0988V16.2745H66.2139C66.4185 15.712 66.7572 15.273 67.2302 14.9577C67.7033 14.6381 68.2679 14.4783 68.9241 14.4783C69.5889 14.4783 70.1493 14.6402 70.6052 14.9641C71.0655 15.2837 71.3893 15.7205 71.5768 16.2745H71.6791C71.8964 15.729 72.2629 15.2943 72.7785 14.9705C73.2984 14.6424 73.9142 14.4783 74.6258 14.4783C75.5292 14.4783 76.2665 14.7638 76.8375 15.3348C77.4085 15.9059 77.694 16.7389 77.694 17.8341V24.4243H75.3737V18.1921C75.3737 17.5827 75.2118 17.1374 74.8879 16.8561C74.564 16.5706 74.1677 16.4279 73.699 16.4279C73.1408 16.4279 72.704 16.6026 72.3886 16.952C72.0775 17.2972 71.922 17.7468 71.922 18.3007V24.4243H69.6528V18.0962C69.6528 17.5891 69.4994 17.1843 69.1926 16.8817C68.89 16.5791 68.4937 16.4279 68.0037 16.4279C67.6713 16.4279 67.3687 16.5131 67.096 16.6835C66.8233 16.8497 66.606 17.0862 66.444 17.3931C66.2821 17.6956 66.2011 18.0493 66.2011 18.4541V24.4243H63.8872ZM80.0415 28.1061V14.6061H82.3171V16.2297H82.4513C82.5706 15.9911 82.7389 15.7375 82.9563 15.4691C83.1736 15.1963 83.4676 14.9641 83.8384 14.7723C84.2091 14.5763 84.6821 14.4783 85.2574 14.4783C86.0159 14.4783 86.6999 14.6722 87.3093 15.06C87.9229 15.4435 88.4087 16.0124 88.7666 16.7666C89.1289 17.5166 89.31 18.4371 89.31 19.528C89.31 20.6061 89.1331 21.5223 88.7794 22.2766C88.4257 23.0309 87.9442 23.6061 87.3348 24.0024C86.7254 24.3987 86.0351 24.5969 85.2638 24.5969C84.7013 24.5969 84.2347 24.5032 83.8639 24.3157C83.4932 24.1282 83.1949 23.9023 82.9691 23.6381C82.7475 23.3696 82.5749 23.1161 82.4513 22.8774H82.3554V28.1061H80.0415ZM82.3107 19.5152C82.3107 20.1502 82.4002 20.7063 82.5791 21.1835C82.7624 21.6608 83.0245 22.0337 83.3654 22.3022C83.7105 22.5664 84.1281 22.6985 84.6182 22.6985C85.1296 22.6985 85.5578 22.5621 85.903 22.2894C86.2482 22.0124 86.5081 21.6353 86.6828 21.158C86.8618 20.6764 86.9513 20.1289 86.9513 19.5152C86.9513 18.9059 86.8639 18.3647 86.6892 17.8916C86.5145 17.4186 86.2546 17.0479 85.9094 16.7794C85.5642 16.511 85.1338 16.3767 84.6182 16.3767C84.1239 16.3767 83.7041 16.5067 83.359 16.7666C83.0138 17.0266 82.7517 17.3909 82.5727 17.8597C82.398 18.3284 82.3107 18.8803 82.3107 19.5152ZM93.6054 18.6715V24.4243H91.2915V11.3334H93.5543V16.2745H93.6693C93.8995 15.7205 94.2553 15.2837 94.7368 14.9641C95.2226 14.6402 95.8405 14.4783 96.5905 14.4783C97.2723 14.4783 97.8668 14.621 98.3739 14.9066C98.881 15.1921 99.273 15.6097 99.55 16.1594C99.8313 16.7091 99.9719 17.3803 99.9719 18.1729V24.4243H97.658V18.5309C97.658 17.8703 97.4875 17.3568 97.1466 16.9904C96.81 16.6196 96.337 16.4343 95.7276 16.4343C95.3185 16.4343 94.952 16.5237 94.6281 16.7027C94.3085 16.8774 94.0571 17.131 93.8739 17.4634C93.6949 17.7958 93.6054 18.1985 93.6054 18.6715Z" fill="black"/>
<path d="M24.5742 17.2486L14.8583 21.7372V19.2159L21.7617 16.2543L21.6836 16.3892V16.0625L21.7617 16.1974L14.8583 13.2358V10.7145L24.5742 15.2031V17.2486Z" fill="black"/>
<path d="M24.4227 22.8848V24.9373H15.0264V22.8848H24.4227Z" fill="black"/>
</svg>
