<svg width="77" height="69" viewBox="0 0 77 69" fill="none" xmlns="http://www.w3.org/2000/svg">
<line x1="51.8382" y1="67.8075" x2="75.8382" y2="42.8075" stroke="black" stroke-width="2"/>
<line x1="58.6958" y1="44.0039" x2="44.6958" y2="20.0039" stroke="black" stroke-width="2"/>
<path d="M52.5597 48.4998L29.8223 26.1757" stroke="black" stroke-width="2"/>
<line x1="49.0557" y1="54.3638" x2="25.0557" y2="40.3638" stroke="black" stroke-width="2"/>
<path d="M27.559 52.0002C25.3923 53.8335 19.659 57.1002 14.059 55.5002C7.05899 53.5002 4.05899 48.0002 3.55899 40.5002C3.15899 34.5002 5.05899 33.6668 6.05899 34.0002C3.22559 31.0001 -1.24116 23.2 3.55899 16C8.35914 8.79997 15.8928 8.99997 19.0596 9.99997C19.7259 6.99998 22.3585 0.999436 27.559 1C32.0596 1.00049 35.5596 3.5 38.0596 6C39.5596 4.33333 43.4596 1 47.0596 1C51.5596 1 57.5596 1.49994 62.0596 9.99997C65.6596 16.8 61.2262 21.8333 58.5596 23.5" stroke="black" stroke-width="2"/>
</svg>
