<svg width="70" height="79" viewBox="0 0 70 79" fill="none" xmlns="http://www.w3.org/2000/svg">
<rect x="6.60724" y="37.1378" width="63.0879" height="7.95462" transform="rotate(11.6411 6.60724 37.1378)" fill="white" stroke="black" stroke-width="2"/>
<rect x="4.90802" y="45.3878" width="63.0879" height="7.95462" transform="rotate(11.6411 4.90802 45.3878)" fill="white" stroke="black" stroke-width="2"/>
<rect x="3.20783" y="53.6378" width="63.0879" height="7.95462" transform="rotate(11.6411 3.20783 53.6378)" fill="white" stroke="black" stroke-width="2"/>
<rect x="4.58209" y="65.9509" width="33.224" height="7.95462" transform="rotate(-78.3589 4.58209 65.9509)" fill="white" stroke="black" stroke-width="2"/>
<rect x="51.0811" y="75.5309" width="33.224" height="7.95462" transform="rotate(-78.3589 51.0811 75.5309)" fill="white" stroke="black" stroke-width="2"/>
<path d="M4.32752 62.2288L40.742 21.2579L44.7258 32.7805M59.8267 73.6627L46.7799 38.2398" stroke="black" stroke-width="2"/>
<line x1="41.3341" y1="33.9884" x2="48.3231" y2="31.3353" stroke="black" stroke-width="2"/>
<line x1="42.8402" y1="38.8078" x2="49.7668" y2="35.9959" stroke="black" stroke-width="2"/>
<mask id="path-9-inside-1_2795_50908" fill="white">
<path fill-rule="evenodd" clip-rule="evenodd" d="M38.9602 0.493652V10.4613H39.5075L39.509 10.4739C39.5504 10.4693 39.5919 10.465 39.6335 10.4613H40.655C41.3776 10.5268 42.0844 10.7313 42.7355 11.0673C43.7286 11.5798 44.5475 12.3753 45.0886 13.3532C45.6296 14.3311 45.8686 15.4474 45.7752 16.5611C45.6817 17.6748 45.2602 18.7358 44.5638 19.6099C43.8674 20.484 42.9274 21.132 41.8627 21.4718C40.7981 21.8117 39.6565 21.8283 38.5825 21.5194C37.5084 21.2105 36.55 20.59 35.8286 19.7365C35.1072 18.8829 34.655 17.8346 34.5294 16.7241L33.335 16.8592C33.4873 18.206 34.0356 19.4773 34.9106 20.5124C35.7855 21.5475 36.9477 22.3 38.2502 22.6746C39.5528 23.0492 40.9371 23.0291 42.2283 22.6169C43.5194 22.2048 44.6594 21.419 45.5039 20.3589C46.3485 19.2989 46.8597 18.0122 46.973 16.6616C47.0863 15.311 46.7965 13.9571 46.1404 12.7712C45.4842 11.5853 44.4911 10.6206 43.2867 9.99907C42.5562 9.62214 41.768 9.38171 40.9602 9.28483V0.493652H38.9602Z"/>
</mask>
<path fill-rule="evenodd" clip-rule="evenodd" d="M38.9602 0.493652V10.4613H39.5075L39.509 10.4739C39.5504 10.4693 39.5919 10.465 39.6335 10.4613H40.655C41.3776 10.5268 42.0844 10.7313 42.7355 11.0673C43.7286 11.5798 44.5475 12.3753 45.0886 13.3532C45.6296 14.3311 45.8686 15.4474 45.7752 16.5611C45.6817 17.6748 45.2602 18.7358 44.5638 19.6099C43.8674 20.484 42.9274 21.132 41.8627 21.4718C40.7981 21.8117 39.6565 21.8283 38.5825 21.5194C37.5084 21.2105 36.55 20.59 35.8286 19.7365C35.1072 18.8829 34.655 17.8346 34.5294 16.7241L33.335 16.8592C33.4873 18.206 34.0356 19.4773 34.9106 20.5124C35.7855 21.5475 36.9477 22.3 38.2502 22.6746C39.5528 23.0492 40.9371 23.0291 42.2283 22.6169C43.5194 22.2048 44.6594 21.419 45.5039 20.3589C46.3485 19.2989 46.8597 18.0122 46.973 16.6616C47.0863 15.311 46.7965 13.9571 46.1404 12.7712C45.4842 11.5853 44.4911 10.6206 43.2867 9.99907C42.5562 9.62214 41.768 9.38171 40.9602 9.28483V0.493652H38.9602Z" fill="#D9D9D9"/>
<path d="M38.9602 10.4613H36.9602V12.4613H38.9602V10.4613ZM38.9602 0.493652V-1.50635H36.9602V0.493652H38.9602ZM39.5075 10.4613L41.4948 10.2364L41.294 8.46125H39.5075V10.4613ZM39.509 10.4739L37.5216 10.6988L37.7465 12.6861L39.7338 12.4613L39.509 10.4739ZM39.6335 10.4613V8.46125H39.5429L39.4527 8.46944L39.6335 10.4613ZM40.655 10.4613L40.8359 8.46944L40.7456 8.46125H40.655V10.4613ZM42.7355 11.0673L41.8183 12.8446H41.8183L42.7355 11.0673ZM45.7752 16.5611L47.7682 16.7283L45.7752 16.5611ZM44.5638 19.6099L46.128 20.8562L46.128 20.8561L44.5638 19.6099ZM38.5825 21.5194L38.0297 23.4415L38.0297 23.4415L38.5825 21.5194ZM35.8286 19.7365L37.3561 18.4454L37.3561 18.4454L35.8286 19.7365ZM34.5294 16.7241L36.5167 16.4992L36.2918 14.5119L34.3045 14.7368L34.5294 16.7241ZM33.335 16.8592L33.1101 14.8719L31.1228 15.0968L31.3476 17.0841L33.335 16.8592ZM34.9106 20.5124L33.3831 21.8035H33.3831L34.9106 20.5124ZM38.2502 22.6746L38.803 20.7525L38.2502 22.6746ZM42.2283 22.6169L41.62 20.7117H41.62L42.2283 22.6169ZM46.973 16.6616L48.966 16.8288L46.973 16.6616ZM46.1404 12.7712L47.8904 11.803L47.8904 11.803L46.1404 12.7712ZM43.2867 9.99907L42.3696 11.7764H42.3696L43.2867 9.99907ZM40.9602 9.28483H38.9602V11.0593L40.7221 11.2706L40.9602 9.28483ZM40.9602 0.493652H42.9602V-1.50635H40.9602V0.493652ZM40.9602 10.4613V0.493652H36.9602V10.4613H40.9602ZM39.5075 8.46125H38.9602V12.4613H39.5075V8.46125ZM41.4963 10.2491L41.4948 10.2364L37.5202 10.6861L37.5216 10.6988L41.4963 10.2491ZM39.4527 8.46944C39.3965 8.47454 39.3403 8.48027 39.2841 8.48663L39.7338 12.4613C39.7606 12.4582 39.7874 12.4555 39.8142 12.4531L39.4527 8.46944ZM40.655 8.46125H39.6335V12.4613H40.655V8.46125ZM43.6526 9.28996C42.7711 8.83506 41.8141 8.55824 40.8359 8.46944L40.4742 12.4531C40.9411 12.4954 41.3977 12.6275 41.8183 12.8446L43.6526 9.28996ZM46.8386 12.3849C46.106 11.0609 44.9973 9.98385 43.6526 9.28996L41.8183 12.8446C42.46 13.1757 42.989 13.6896 43.3386 14.3214L46.8386 12.3849ZM47.7682 16.7283C47.8946 15.2204 47.5711 13.7089 46.8386 12.3849L43.3386 14.3214C43.6881 14.9532 43.8425 15.6744 43.7822 16.394L47.7682 16.7283ZM46.128 20.8561C47.0709 19.6727 47.6417 18.2362 47.7682 16.7283L43.7822 16.394C43.7218 17.1135 43.4494 17.7989 42.9995 18.3636L46.128 20.8561ZM42.471 23.3771C43.9125 22.9169 45.1851 22.0396 46.128 20.8562L42.9995 18.3636C42.5496 18.9284 41.9423 19.347 41.2545 19.5666L42.471 23.3771ZM38.0297 23.4415C39.4839 23.8597 41.0295 23.8373 42.471 23.3771L41.2545 19.5666C40.5666 19.7862 39.8291 19.7968 39.1352 19.5973L38.0297 23.4415ZM34.3011 21.0275C35.2779 22.1832 36.5755 23.0232 38.0297 23.4415L39.1352 19.5973C38.4413 19.3977 37.8222 18.9969 37.3561 18.4454L34.3011 21.0275ZM32.5421 16.9489C32.7122 18.4525 33.3243 19.8719 34.3011 21.0275L37.3561 18.4454C36.89 17.894 36.5979 17.2167 36.5167 16.4992L32.5421 16.9489ZM33.5598 18.8465L34.7542 18.7114L34.3045 14.7368L33.1101 14.8719L33.5598 18.8465ZM36.438 19.2214C35.8185 18.4884 35.4302 17.5881 35.3223 16.6344L31.3476 17.0841C31.5445 18.8239 32.2528 20.4662 33.3831 21.8035L36.438 19.2214ZM38.803 20.7525C37.8806 20.4872 37.0576 19.9544 36.438 19.2214L33.3831 21.8035C34.5133 23.1407 36.0147 24.1128 37.6974 24.5967L38.803 20.7525ZM41.62 20.7117C40.7057 21.0036 39.7254 21.0178 38.803 20.7525L37.6974 24.5967C39.3801 25.0806 41.1686 25.0547 42.8365 24.5222L41.62 20.7117ZM43.9397 19.1127C43.3416 19.8633 42.5344 20.4198 41.62 20.7117L42.8365 24.5222C44.5045 23.9897 45.9771 22.9746 47.0681 21.6052L43.9397 19.1127ZM44.98 16.4944C44.8998 17.4509 44.5377 18.362 43.9397 19.1127L47.0681 21.6052C48.1592 20.2358 48.8196 18.5736 48.966 16.8288L44.98 16.4944ZM44.3904 13.7395C44.855 14.5793 45.0602 15.538 44.98 16.4944L48.966 16.8288C49.1123 15.084 48.738 13.335 47.8904 11.803L44.3904 13.7395ZM42.3696 11.7764C43.2225 12.2165 43.9257 12.8997 44.3904 13.7395L47.8904 11.803C47.0427 10.2709 45.7598 9.02466 44.2038 8.22175L42.3696 11.7764ZM40.7221 11.2706C41.2941 11.3392 41.8523 11.5095 42.3696 11.7764L44.2038 8.22175C43.2602 7.73481 42.2418 7.42421 41.1984 7.29906L40.7221 11.2706ZM38.9602 0.493652V9.28483H42.9602V0.493652H38.9602ZM38.9602 2.49365H40.9602V-1.50635H38.9602V2.49365Z" fill="black" mask="url(#path-9-inside-1_2795_50908)"/>
</svg>
