<svg width="85" height="72" viewBox="0 0 85 72" fill="none" xmlns="http://www.w3.org/2000/svg">
<path d="M21.6594 15.473L32.5942 24.0136V18.1388L49.9397 28.2803L30.5931 6.93964V12.7429L17.7215 2.40136V8.86931L0.847656 0L21.6594 20.2758V15.473Z" fill="#231F20"/>
<path d="M79.9777 41.2877L75.2107 30.2815L58.2082 17.4742L60.5739 8.68352C60.8952 7.78696 60.8471 6.79949 60.4403 5.93835C60.0336 5.0772 59.3013 4.41292 58.4048 4.09164C57.5082 3.77035 56.5208 3.81838 55.6596 4.22517C54.7985 4.63195 54.1342 5.36416 53.8129 6.26072L53.7772 6.38221C53.7041 6.57441 53.649 6.773 53.6128 6.97541L49.9178 20.2758L60.7168 27.6157L50.2037 37.75L39.3976 32.4184L23.0241 39.8083C22.6292 39.9174 22.2532 40.0861 21.9091 40.3086C21.0602 40.8443 20.4367 41.6722 20.1562 42.6361C19.8758 43.6 19.958 44.6332 20.3871 45.5407C20.8162 46.4482 21.5627 47.1672 22.4856 47.5621C23.4085 47.957 24.4441 48.0004 25.3968 47.6842L25.5255 47.6198C25.8342 47.5208 26.1294 47.384 26.4045 47.2125L39.269 41.1948L48.4027 45.7259L33.3299 47.87V67.7455C33.3299 67.7884 33.3299 67.8313 33.3299 67.8741C33.3299 67.917 33.3299 67.9671 33.3299 68.0099V68.1457C33.3949 69.139 33.817 70.0752 34.5183 70.7815C35.2195 71.4879 36.1526 71.9168 37.1454 71.9891C38.1381 72.0614 39.1235 71.7722 39.9197 71.1748C40.7159 70.5774 41.2691 69.7123 41.4774 68.7389H41.5703V68.0242C41.5703 67.9742 41.5703 67.9242 41.5703 67.8741C41.5703 67.8241 41.5703 67.7241 41.5703 67.6526L41.3416 55.1598L53.427 53.7304L70.4294 37.4855L72.8308 43.3889V55.1312C72.7682 56.079 73.0848 57.0127 73.7107 57.7271C74.3366 58.4415 75.2207 58.878 76.1684 58.9405C77.1161 59.0031 78.0499 58.6866 78.7643 58.0606C79.4787 57.4347 79.9151 56.5507 79.9777 55.6029V55.4743C79.9967 55.3608 80.0086 55.2462 80.0134 55.1312C80.0086 55.0139 79.9967 54.8969 79.9777 54.781V41.2877Z" fill="#231F20"/>
<path d="M75.683 8.40475C74.0079 8.40475 72.3705 8.90146 70.9778 9.83205C69.5851 10.7626 68.4995 12.0853 67.8585 13.6329C67.2175 15.1804 67.0498 16.8832 67.3766 18.5261C67.7034 20.1689 68.51 21.6779 69.6944 22.8624C70.8788 24.0468 72.3879 24.8534 74.0307 25.1802C75.6736 25.507 77.3764 25.3392 78.9239 24.6982C80.4714 24.0572 81.7941 22.9717 82.7247 21.579C83.6553 20.1863 84.152 18.5489 84.152 16.8738C84.152 15.7617 83.933 14.6604 83.5074 13.6329C83.0817 12.6053 82.4579 11.6717 81.6715 10.8853C80.8851 10.0989 79.9514 9.47504 78.9239 9.04943C77.8964 8.62382 76.7951 8.40475 75.683 8.40475Z" fill="#231F20"/>
</svg>
