<svg width="87" height="72" viewBox="0 0 87 72" fill="none" xmlns="http://www.w3.org/2000/svg">
<path d="M82.2482 30.4344C81.7638 30.2098 81.2164 30.1606 80.6997 30.2954C80.1831 30.4302 79.7294 30.7405 79.4165 31.1731C79.3647 26.3132 79.1055 17.0794 77.4726 16.0686C77.4726 16.0686 73.4421 12.1807 60.3982 6.34883C47.3543 0.516978 41.7816 0.0374665 41.7816 0.0374665C39.9348 -0.52628 32.8459 5.40926 29.1783 8.59086C29.2935 8.07567 29.2275 7.53651 28.9914 7.06433C28.7554 6.59214 28.3636 6.21585 27.8823 5.99892C26.2105 5.24726 20.7934 5.00102 20.5796 6.95794C20.3657 8.91485 23.4307 11.6753 24.4156 12.4658C24.4156 12.4658 22.6596 15.777 20.0612 16.3537C18.9596 16.5152 17.9183 16.9578 17.0375 17.6388C16.1568 18.3198 15.4664 19.2162 15.0328 20.2416L5.32602 41.6899C5.14892 42.1343 5.15051 42.6299 5.33046 43.0731C5.5104 43.5164 5.85477 43.8728 6.29152 44.068L13.4193 47.269C13.8492 47.4596 14.337 47.4726 14.7764 47.3051C15.2158 47.1376 15.5711 46.8032 15.765 46.3748L17.2165 43.1349L39.3646 53.0944L61.5127 63.0539L60.0612 66.2938C59.8702 66.7229 59.8563 67.21 60.0226 67.6493C60.1888 68.0886 60.5217 68.4444 60.949 68.6395L68.0768 71.8341C68.512 72.0322 69.0071 72.0537 69.4579 71.8942C69.9087 71.7347 70.28 71.4065 70.4938 70.9788L80.1617 49.4916C80.6468 48.4866 80.8641 47.3733 80.7926 46.2596C80.7211 45.1459 80.3631 44.0696 79.7535 43.1349C78.4575 40.8345 79.7535 37.303 79.7535 37.303C80.9976 37.5169 85.0928 37.9834 86.4212 36.519C87.7496 35.0545 83.9524 31.1861 82.2482 30.4344ZM25.9902 27.35C25.6603 28.0828 25.1204 28.7013 24.4389 29.1272C23.7575 29.5532 22.965 29.7675 22.1617 29.743C21.3584 29.7184 20.5804 29.4563 19.9262 28.9896C19.2719 28.5229 18.7708 27.8726 18.4861 27.1211C18.2015 26.3695 18.1461 25.5505 18.327 24.7674C18.5079 23.9844 18.9169 23.2726 19.5024 22.7221C20.0879 22.1716 20.8235 21.8071 21.6161 21.6747C22.4088 21.5422 23.2229 21.6479 23.9556 21.9782C24.9375 22.421 25.7035 23.2355 26.085 24.2429C26.4666 25.2502 26.4325 26.3678 25.9902 27.35ZM52.914 22.9372L33.0273 14.021L42.8573 5.44166C44.717 5.06583 55.2726 9.64059 58.3052 10.9754C61.3378 12.3103 71.7444 17.222 72.6969 18.8549L72.8006 31.9118L52.914 22.9372ZM74.8806 49.3361C74.5512 50.069 74.0119 50.6877 73.3309 51.1141C72.6498 51.5405 71.8576 51.7554 71.0545 51.7316C70.2513 51.7078 69.4732 51.4463 68.8186 50.9803C68.1641 50.5144 67.6623 49.8647 67.3769 49.1136C67.0915 48.3625 67.0353 47.5436 67.2152 46.7605C67.3952 45.9774 67.8033 45.2653 68.388 44.7141C68.9727 44.163 69.7077 43.7976 70.5 43.6641C71.2924 43.5306 72.1065 43.6351 72.8395 43.9643C73.3263 44.1829 73.7652 44.4953 74.1312 44.8836C74.4973 45.2719 74.7832 45.7285 74.9728 46.2274C75.1623 46.7262 75.2518 47.2575 75.2359 47.7909C75.2201 48.3243 75.0994 48.8494 74.8806 49.3361Z" fill="#231F20"/>
<path d="M32.0034 68.6137L11.1836 53.4055C10.762 53.0573 10.2626 52.8158 9.72786 52.7016C9.19308 52.5874 8.63865 52.6038 8.11156 52.7494C7.58446 52.895 7.10024 53.1655 6.69991 53.538C6.29958 53.9106 5.99496 54.3741 5.81185 54.8894L0.627976 67.1298C-0.33104 69.4042 0.900127 71.2639 3.36895 71.2639H31.1415C33.6104 71.2639 33.9992 70.0716 32.0034 68.6137Z" fill="#231F20"/>
</svg>
