<svg width="91" height="72" viewBox="0 0 91 72" fill="none" xmlns="http://www.w3.org/2000/svg">
<path d="M78.9339 27.7751L74.7217 31.9874V37.9387L78.9339 42.1509H84.8852L89.0974 37.9387V31.9874L84.8852 27.7751H78.9339ZM88.6841 37.7534L84.7213 41.7233H79.1192L75.1493 37.7534V32.1442L79.1192 28.1743H84.7355L88.6983 32.1442L88.6841 37.7534Z" fill="#231F20"/>
<path d="M85.2704 26.8557H78.5493L73.7954 31.6025V38.3521L78.5493 43.0988H85.2704L90.0171 38.3521V31.631L85.2704 26.8557ZM89.6109 38.1525L85.0993 42.6641H78.7204L74.2088 38.1525V31.7736L78.7204 27.262H85.0993L89.6109 31.7736V38.1525Z" fill="#231F20"/>
<path d="M81.6497 71.2017H1.78116V0.798254H81.6497V26.0859H82.4408V0H0.98291V72H82.4408V44.453H81.6497V71.2017Z" fill="#231F20"/>
<path d="M72.5478 58.9143C72.391 58.9143 72.2413 58.9143 72.0845 58.9143H71.6355H56.9889L56.8606 57.8523L64.7006 48.5868C64.7006 48.5868 70.1958 42.3932 63.0471 37.0691C57.4949 32.9353 47.7662 24.4894 47.7662 24.4894L46.3407 23.2279L48.4789 16.2574C48.6074 15.8809 48.6747 15.4863 48.6785 15.0885C48.6775 14.3398 48.4577 13.6076 48.0462 12.9821C47.6347 12.3565 47.0493 11.8649 46.3621 11.5676H46.2908L24.0964 3.47101C24.0386 3.44537 23.9791 3.42393 23.9182 3.40687L23.6189 3.29283C23.2786 3.19107 22.9262 3.13593 22.5712 3.12891C21.6623 3.09649 20.7714 3.38755 20.057 3.9503C19.3426 4.51306 18.851 5.31101 18.6697 6.20218C18.4884 7.09334 18.6291 8.01994 19.0669 8.81709C19.5046 9.61425 20.2109 10.2303 21.0602 10.5556L38.0231 16.4855L30.7177 39.3855C30.0276 39.3998 29.3504 39.5748 28.7398 39.8965C28.1292 40.2182 27.602 40.6779 27.2001 41.2389C26.7982 41.8 26.5325 42.447 26.4243 43.1286C26.3161 43.8103 26.3683 44.5078 26.5767 45.1657L17.5963 53.3194C16.8241 53.981 16.3464 54.9222 16.2682 55.936C16.19 56.9499 16.5178 57.9532 17.1794 58.7254C17.841 59.4976 18.7822 59.9753 19.796 60.0535C20.8099 60.1317 21.8132 59.804 22.5854 59.1424L22.7921 58.9642L23.0202 58.7575L27.881 54.4312L29.2067 64.7587C29.2124 65.088 29.2555 65.4155 29.335 65.7351C29.6032 66.7712 30.2371 67.6754 31.1199 68.2806C32.0026 68.8858 33.0744 69.1512 34.1376 69.0279C35.2007 68.9045 36.1833 68.4007 36.9041 67.6095C37.6248 66.8183 38.0349 65.793 38.0588 64.723C38.059 64.544 38.0447 64.3652 38.016 64.1885L36.726 49.1641L49.8972 49.2283V51.1812L42.4563 59.5771C41.7864 60.0141 41.2451 60.6218 40.8883 61.3376C40.5864 61.9442 40.4302 62.6129 40.4322 63.2905C40.4341 64.4656 40.9017 65.5921 41.7327 66.4231C42.5637 67.2541 43.6902 67.7218 44.8654 67.7236H72.5407C73.6358 67.6157 74.6517 67.1043 75.3907 66.2888C76.1297 65.4734 76.539 64.4123 76.539 63.3118C76.539 62.2114 76.1297 61.1502 75.3907 60.3348C74.6517 59.5194 73.6358 59.008 72.5407 58.9L72.5478 58.9143Z" fill="#231F20"/>
<path d="M19.5854 33.2703V32.9424L21.9161 32.8925C22.9325 33.3708 24.0398 33.6251 25.1631 33.6381C26.2864 33.6511 27.3993 33.4226 28.4266 32.968C29.4538 32.5135 30.3714 31.8435 31.1171 31.0034C31.8629 30.1633 32.4194 29.1728 32.749 28.0989C33.0786 27.025 33.1736 25.8928 33.0275 24.779C32.8814 23.6653 32.4977 22.5959 31.9023 21.6433C31.3069 20.6907 30.5138 19.8772 29.5766 19.2578C28.6395 18.6385 27.5801 18.2278 26.4704 18.0535C24.9272 16.7577 22.9761 16.0485 20.961 16.0507C18.7899 16.0182 16.6943 16.8463 15.1318 18.354C13.5693 19.8618 12.667 21.9266 12.6221 24.0974C12.6248 25.3516 12.9255 26.5871 13.4992 27.7023C14.0729 28.8175 14.9033 29.7805 15.922 30.512C16.268 32.33 16.4303 34.1781 16.4067 36.0285C16.3995 36.6486 19.5854 36.784 19.5854 33.2703Z" fill="#231F20"/>
<path d="M84.8852 27.7751H78.9339L74.7217 31.9874V37.9387L78.9339 42.1509H84.8852L89.0974 37.9387V31.9874L84.8852 27.7751ZM86.8595 35.2018L84.6643 39.1717C84.4201 39.5156 84.1004 39.799 83.7298 40.0004C83.3592 40.2018 82.9475 40.3157 82.5261 40.3334H80.9723C80.3106 40.3002 79.6878 40.011 79.2355 39.5268C78.7833 39.0426 78.5371 38.4015 78.549 37.7391V32.0943C78.5397 32.0078 78.5487 31.9202 78.5755 31.8374C78.6022 31.7546 78.6461 31.6783 78.7042 31.6136C78.7624 31.5488 78.8335 31.4971 78.913 31.4616C78.9925 31.4262 79.0785 31.4078 79.1656 31.4078C79.2526 31.4078 79.3386 31.4262 79.4181 31.4616C79.4976 31.4971 79.5687 31.5488 79.6269 31.6136C79.685 31.6783 79.7289 31.7546 79.7556 31.8374C79.7824 31.9202 79.7914 32.0078 79.7821 32.0943V34.6815C79.7821 34.7174 79.7963 34.7519 79.8217 34.7772C79.8471 34.8026 79.8816 34.8169 79.9175 34.8169C79.9528 34.8152 79.9863 34.8004 80.0113 34.7753C80.0364 34.7503 80.0512 34.7169 80.0529 34.6815V30.512C80.0436 30.4255 80.0526 30.338 80.0793 30.2552C80.1061 30.1723 80.1499 30.0961 80.2081 30.0313C80.2662 29.9666 80.3374 29.9148 80.4168 29.8793C80.4963 29.8439 80.5824 29.8256 80.6694 29.8256C80.7564 29.8256 80.8425 29.8439 80.922 29.8793C81.0015 29.9148 81.0726 29.9666 81.1307 30.0313C81.1889 30.0961 81.2328 30.1723 81.2595 30.2552C81.2862 30.338 81.2952 30.4255 81.2859 30.512V34.6744C81.2859 34.7103 81.3002 34.7447 81.3256 34.7701C81.351 34.7955 81.3854 34.8098 81.4213 34.8098C81.4567 34.8081 81.4902 34.7932 81.5152 34.7682C81.5402 34.7432 81.555 34.7097 81.5568 34.6744V29.7993C81.5731 29.6472 81.6451 29.5066 81.7589 29.4043C81.8727 29.3021 82.0203 29.2456 82.1733 29.2456C82.3262 29.2456 82.4738 29.3021 82.5876 29.4043C82.7014 29.5066 82.7734 29.6472 82.7898 29.7993V34.6601C82.7898 34.696 82.804 34.7305 82.8294 34.7559C82.8548 34.7813 82.8893 34.7955 82.9252 34.7955C82.9606 34.7938 82.994 34.779 83.019 34.754C83.0441 34.7289 83.0589 34.6955 83.0606 34.6601V30.5833C83.077 30.4312 83.149 30.2906 83.2628 30.1884C83.3766 30.0861 83.5242 30.0296 83.6771 30.0296C83.8301 30.0296 83.9777 30.0861 84.0915 30.1884C84.2053 30.2906 84.2773 30.4312 84.2936 30.5833V36.0286C84.2941 36.0559 84.3024 36.0825 84.3176 36.1053C84.3327 36.128 84.3541 36.1459 84.3792 36.1568C84.4014 36.1716 84.4274 36.1794 84.454 36.1794C84.4806 36.1794 84.5067 36.1716 84.5288 36.1568L85.8902 34.6245C85.976 34.5246 86.0923 34.4559 86.2212 34.4288C86.35 34.4018 86.4842 34.4179 86.6029 34.4748C86.7289 34.5419 86.8252 34.6538 86.8727 34.7884C86.9202 34.923 86.9155 35.0705 86.8595 35.2018Z" fill="#231F20"/>
</svg>
