<svg width="59" height="72" viewBox="0 0 59 72" fill="none" xmlns="http://www.w3.org/2000/svg">
<path d="M8.18446 32.6268C8.18446 34.126 5.73843 35.3885 5.73843 36.9666C5.73843 38.5446 8.18446 39.5704 8.18446 40.9907C8.18446 42.4109 5.73279 43.4367 5.73279 44.7781C5.73279 46.1194 8.17882 47.4608 8.17882 48.96C8.17882 50.4592 5.73279 51.5638 5.73279 52.9052C5.73279 54.2466 8.17882 55.5879 8.17882 57.2449C8.17882 58.9019 5.73279 60.3222 5.73279 61.1056H13.3076C13.3076 60.3222 15.7536 58.9019 15.7536 57.2449C15.7536 55.5879 13.3076 54.2466 13.3076 52.9052C13.3076 51.5638 15.7536 50.4592 15.7536 48.96C15.7536 47.4608 13.3076 46.142 13.3076 44.7781C13.3076 43.4142 15.7536 42.4109 15.7536 40.9907C15.7536 39.5704 13.3076 38.5446 13.3076 36.9666C13.3076 35.3885 15.7536 34.1486 15.7536 32.6268C15.7536 31.4376 14.2093 29.8088 13.5781 29.1776H17.5233L9.72309 24.7421L1.92285 29.1776H6.00896C6.64019 29.7976 8.18446 31.4376 8.18446 32.6268Z" fill="#231F20"/>
<path d="M45.4217 32.6268C45.4217 34.126 42.9813 35.3885 42.9813 36.9666C42.9813 38.5446 45.4217 39.5704 45.4217 40.9907C45.4217 42.4109 42.9813 43.4367 42.9813 44.7781C42.9813 46.1194 45.4217 47.4608 45.4217 48.96C45.4217 50.4592 42.9813 51.5638 42.9813 52.9052C42.9813 54.2466 45.4217 55.5879 45.4217 57.2449C45.4217 58.9019 42.9813 60.3222 42.9813 61.1056H50.5505C50.5505 60.3222 52.9965 58.9019 52.9965 57.2449C52.9965 55.5879 50.5505 54.2466 50.5505 52.9052C50.5505 51.5638 52.9965 50.4592 52.9965 48.96C52.9965 47.4608 50.5505 46.142 50.5505 44.7781C50.5505 43.4142 52.9965 42.4109 52.9965 40.9907C52.9965 39.5704 50.5505 38.5446 50.5505 36.9666C50.5505 35.3885 52.9965 34.1486 52.9965 32.6268C52.9965 31.4376 51.4522 29.8088 50.821 29.1776H54.7662L46.966 24.7421L39.1714 29.1776H43.2575C43.8775 29.7976 45.4217 31.4376 45.4217 32.6268Z" fill="#231F20"/>
<path d="M25.8652 9.35577C26.3086 9.87472 26.6438 10.4771 26.8509 11.1276C27.0581 11.778 27.133 12.4633 27.0713 13.1432C27.0713 14.7212 24.3378 16.9306 24.3378 19.664C24.3378 22.3975 27.0713 23.5754 27.0713 26.957C27.0713 30.3386 24.3322 30.8684 24.3322 33.3426C24.3322 35.8168 27.0656 37.3893 27.0656 40.4947C27.0656 43.6001 24.3322 45.0711 24.3322 47.5397C24.3322 50.0083 27.0656 51.9583 27.0656 54.4326C27.0656 56.9068 24.3322 59.3753 24.3322 61.3198H31.8055C31.8055 59.3753 34.539 56.9011 34.539 54.4326C34.539 51.964 31.8055 50.0139 31.8055 47.5397C31.8055 45.0655 34.539 43.5945 34.539 40.4947C34.539 37.3949 31.8055 35.8112 31.8055 33.3426C31.8055 30.874 34.539 30.3443 34.539 26.957C34.539 23.5698 31.8055 22.4031 31.8055 19.664C31.8055 16.9249 34.539 14.7212 34.539 13.1432C34.6017 12.4646 34.5289 11.7802 34.3248 11.13C34.1206 10.4798 33.7892 9.87671 33.3498 9.35577C32.7135 8.56342 32.341 7.59186 32.2846 6.57722H36.985L28.531 0L20.1221 6.57722H24.8112C24.8644 7.59059 25.2329 8.56203 25.8652 9.35577Z" fill="#231F20"/>
<path d="M54.4281 63.9518H4.57196C3.5047 63.9518 2.48115 64.3757 1.72648 65.1304C0.971818 65.8851 0.547852 66.9086 0.547852 67.9759C0.547852 69.0432 0.971818 70.0667 1.72648 70.8214C2.48115 71.576 3.5047 72 4.57196 72H54.4281C55.4953 72 56.5189 71.576 57.2735 70.8214C58.0282 70.0667 58.4522 69.0432 58.4522 67.9759C58.4522 66.9086 58.0282 65.8851 57.2735 65.1304C56.5189 64.3757 55.4953 63.9518 54.4281 63.9518Z" fill="#231F20"/>
</svg>
