<svg width="55" height="72" viewBox="0 0 55 72" fill="none" xmlns="http://www.w3.org/2000/svg">
<path d="M23.0466 25.6538C23.0471 24.8835 22.8589 24.1248 22.4985 23.4439C22.1382 22.7631 21.6166 22.1809 20.9794 21.7481V22.7703H20.0983V21.298C19.6965 21.1348 19.2743 21.027 18.8435 20.9777V22.7894H17.9624V20.9471C17.5239 20.9795 17.0924 21.0746 16.6809 21.2294V22.755H15.7998V21.6795C15.1255 22.104 14.5699 22.6927 14.185 23.3904C13.8001 24.0882 13.5985 24.8722 13.5991 25.669H12.7676V26.7904H23.8743V25.6538H23.0466Z" fill="#231F20"/>
<path d="M22.8936 26.7751C22.6383 25.7545 22.0491 24.8486 21.2198 24.2013C20.3906 23.5539 19.3687 23.2023 18.3167 23.2023C17.2647 23.2023 16.2428 23.5539 15.4135 24.2013C14.5843 24.8486 13.9951 25.7545 13.7397 26.7751H22.8936Z" fill="#231F20"/>
<path d="M13.622 27.4846C13.622 27.6371 13.5991 27.7935 13.5991 27.9499C13.5811 28.5815 13.69 29.2103 13.9193 29.7991C14.1487 30.3879 14.4937 30.9248 14.9342 31.3779C15.3746 31.831 15.9014 32.1912 16.4834 32.4371C17.0655 32.6831 17.691 32.8098 18.3229 32.8098C18.9547 32.8098 19.5802 32.6831 20.1623 32.4371C20.7443 32.1912 21.2711 31.831 21.7116 31.3779C22.152 30.9248 22.497 30.3879 22.7264 29.7991C22.9557 29.2103 23.0646 28.5815 23.0466 27.9499C23.0466 27.7935 23.0466 27.6371 23.0238 27.4846H13.622Z" fill="#231F20"/>
<path d="M25.4881 0H24.3667V32.6755H25.4881V0Z" fill="#231F20"/>
<path d="M53.3422 64.8667C53.3204 65.3503 53.1129 65.8068 52.7631 66.1413C52.4132 66.4757 51.9478 66.6624 51.4637 66.6624C50.9797 66.6624 50.5143 66.4757 50.1644 66.1413C49.8145 65.8068 49.6071 65.3503 49.5853 64.8667H48.7309C48.7309 65.3644 48.5332 65.8417 48.1813 66.1936C47.8294 66.5455 47.352 66.7432 46.8544 66.7432C46.3567 66.7432 45.8794 66.5455 45.5274 66.1936C45.1755 65.8417 44.9778 65.3644 44.9778 64.8667H44.1234C44.1017 65.3503 43.8942 65.8068 43.5443 66.1413C43.1944 66.4757 42.729 66.6624 42.245 66.6624C41.761 66.6624 41.2956 66.4757 40.9457 66.1413C40.5958 65.8068 40.3883 65.3503 40.3665 64.8667H39.5122C39.5122 65.3644 39.3145 65.8417 38.9626 66.1936C38.6106 66.5455 38.1333 66.7432 37.6356 66.7432C37.1379 66.7432 36.6606 66.5455 36.3087 66.1936C35.9568 65.8417 35.7591 65.3644 35.7591 64.8667H34.9047C34.8829 65.3503 34.6755 65.8068 34.3256 66.1413C33.9757 66.4757 33.5103 66.6624 33.0263 66.6624C32.5422 66.6624 32.0768 66.4757 31.7269 66.1413C31.377 65.8068 31.1696 65.3503 31.1478 64.8667H30.2935C30.2926 65.4587 30.4841 66.035 30.8391 66.5087C31.1942 66.9824 31.6936 67.3279 32.2621 67.4932C32.8305 67.6584 33.4373 67.6345 33.991 67.4249C34.5447 67.2154 35.0153 66.8316 35.3319 66.3313C35.5779 66.7197 35.9181 67.0395 36.3209 67.2612C36.7237 67.4828 37.1759 67.599 37.6356 67.599C38.0954 67.599 38.5476 67.4828 38.9504 67.2612C39.3531 67.0395 39.6933 66.7197 39.9394 66.3313C40.1859 66.7196 40.5264 67.0394 40.9295 67.261C41.3326 67.4825 41.785 67.5987 42.245 67.5987C42.7049 67.5987 43.1574 67.4825 43.5605 67.261C43.9636 67.0394 44.3041 66.7196 44.5506 66.3313C44.7966 66.7197 45.1369 67.0395 45.5396 67.2612C45.9424 67.4828 46.3946 67.599 46.8544 67.599C47.3141 67.599 47.7663 67.4828 48.1691 67.2612C48.5719 67.0395 48.9121 66.7197 49.1581 66.3313C49.4747 66.8316 49.9453 67.2154 50.499 67.4249C51.0527 67.6345 51.6594 67.6584 52.2279 67.4932C52.7964 67.3279 53.2958 66.9824 53.6508 66.5087C54.0059 66.035 54.1974 65.4587 54.1965 64.8667H53.3422Z" fill="#231F20"/>
<path d="M46.4576 58.7107H44.2111V53.7638H40.2787V58.7107H38.0322L42.243 62.9215L46.4576 58.7107Z" fill="#231F20"/>
<path d="M8.38151 47.3256C8.38086 47.133 8.32093 46.9452 8.20987 46.7878L7.95051 46.4064L14.0531 43.4886C14.0531 43.4886 14.3468 38.6523 15.3804 38.6523V41.982L22.303 40.5899V33.5261L15.983 33.6177C15.983 33.6177 11.1963 35.8222 11.1963 41.2001L6.03582 43.5801L5.04034 42.1117C5.24353 41.7676 5.35176 41.3758 5.35398 40.9762C5.35621 40.5766 5.25234 40.1835 5.053 39.8372C4.85366 39.4909 4.56597 39.2036 4.21932 39.0049C3.87267 38.8061 3.47948 38.7028 3.07988 38.7057C3.00492 38.7019 2.92981 38.7019 2.85485 38.7057C2.76684 38.7057 2.68244 38.7407 2.62021 38.8029C2.55798 38.8651 2.52302 38.9495 2.52302 39.0375C2.52302 39.1265 2.55838 39.2119 2.62133 39.2749C2.68427 39.3378 2.76965 39.3732 2.85866 39.3732C3.16195 39.3966 3.44411 39.5375 3.64503 39.7659C3.84594 39.9943 3.94975 40.2921 3.93434 40.596C3.91892 40.8998 3.78551 41.1855 3.5625 41.3924C3.3395 41.5993 3.04453 41.711 2.74043 41.7036C2.09584 41.7036 1.59619 40.9408 1.59619 40.3076C1.60014 40.2772 1.60014 40.2465 1.59619 40.2161C1.59662 40.1418 1.57208 40.0694 1.52651 40.0107C1.48093 39.952 1.41696 39.9103 1.34485 39.8922C1.27273 39.8742 1.19666 39.8809 1.12881 39.9113C1.06096 39.9417 1.00527 39.9939 0.970676 40.0597V40.0902C0.830566 40.435 0.7774 40.809 0.815864 41.1791C0.854328 41.5493 0.983241 41.9043 1.19124 42.2129C1.39925 42.5216 1.67996 42.7743 2.00864 42.9488C2.33733 43.1234 2.7039 43.2145 3.07607 43.214C3.2907 43.2105 3.50379 43.1771 3.70921 43.1148L4.62841 44.5718C4.49821 44.8146 4.43008 45.0858 4.43008 45.3613C4.43008 45.8145 4.6101 46.2491 4.93055 46.5696C5.251 46.89 5.68562 47.0701 6.1388 47.0701H6.19983L6.58124 47.6612C6.6176 47.7456 6.66646 47.8241 6.72618 47.8939C6.84886 48.0426 7.01454 48.1498 7.20051 48.2007C7.38648 48.2515 7.58363 48.2436 7.76494 48.178C7.94624 48.1124 8.10282 47.9924 8.2132 47.8343C8.32359 47.6762 8.38238 47.4879 8.38151 47.2951V47.3256Z" fill="#231F20"/>
<path d="M26.1862 44.4879L15.3656 46.6048V47.9244L8.84724 50.9376C8.70264 50.9871 8.56336 51.051 8.4315 51.1283L8.36666 51.1588C8.05613 51.3572 7.80068 51.6307 7.624 51.9541C7.44731 52.2774 7.35511 52.6402 7.35592 53.0087C7.35592 53.0392 7.35592 53.0697 7.35592 53.1002L7.31396 53.1841L10.1021 62.872C10.1184 62.9417 10.1388 63.0105 10.1631 63.0779L10.2127 63.261C10.4004 63.7389 10.749 64.1363 11.1984 64.3847C11.6478 64.633 12.1697 64.7167 12.6742 64.6213C13.1788 64.5259 13.6341 64.2575 13.9618 63.8622C14.2895 63.4669 14.469 62.9697 14.4693 62.4562C14.4664 62.1289 14.3923 61.806 14.2518 61.5103L12.2609 54.3054L19.9311 50.8155L20.2248 50.9948L16.7272 57.269L20.6786 69.9624C20.701 70.291 20.8003 70.6098 20.9685 70.893V70.9236C21.2157 71.3395 21.593 71.6623 22.0421 71.8422C22.4912 72.0221 22.9871 72.049 23.453 71.9187C23.9189 71.7885 24.3289 71.5083 24.6196 71.1216C24.9103 70.7348 25.0654 70.2631 25.0611 69.7793C25.0593 69.5346 25.0154 69.2921 24.9314 69.0623L21.7809 57.5055C21.7809 57.5055 24.1304 53.0201 25.2136 51.2313C25.8412 50.2437 26.1758 49.0984 26.1786 47.9283L26.1862 44.4879Z" fill="#231F20"/>
<path d="M15.3652 45.4796L26.1821 43.3017V40.9904L15.3652 43.1072V45.4796Z" fill="#231F20"/>
<path d="M31.9033 47.2989V47.1692V37.2525L25.7778 33.4766L23.4512 33.5071V40.3687L26.1783 39.8233V37.8895L28.4896 39.2321V47.1845C28.484 47.6288 28.6521 48.0578 28.958 48.38C29.264 48.7022 29.6836 48.8923 30.1276 48.9097C30.5716 48.9271 31.0049 48.7705 31.3351 48.4732C31.6653 48.1759 31.8665 47.7614 31.8956 47.318L31.9033 47.2989Z" fill="#231F20"/>
</svg>
