<svg width="69" height="72" viewBox="0 0 69 72" fill="none" xmlns="http://www.w3.org/2000/svg">
<path d="M64.7074 63.6021H4.29272C3.17909 63.6021 2.11106 64.0444 1.3236 64.8319C0.536144 65.6194 0.09375 66.6874 0.09375 67.801C0.09375 68.9147 0.536144 69.9827 1.3236 70.7701C2.11106 71.5576 3.17909 72 4.29272 72H64.7074C65.821 72 66.889 71.5576 67.6765 70.7701C68.464 69.9827 68.9064 68.9147 68.9064 67.801C68.9064 66.6874 68.464 65.6194 67.6765 64.8319C66.889 64.0444 65.821 63.6021 64.7074 63.6021Z" fill="#231F20"/>
<path d="M24.5283 59.3208L44.8351 59.2679C46.2583 59.2679 51.6922 54.9807 54.6033 51.2522C57.5144 47.5237 55.4796 44.3362 55.4796 40.2196C55.4796 36.103 58.9375 33.4154 58.9375 33.4154V33.2507C53.9446 31.2747 51.6922 36.544 50.5396 36.6028C49.3869 36.6616 49.3634 33.0331 50.0456 31.7158C51.1453 29.6575 50.6337 24.0706 50.2691 25.2468C49.3281 28.4342 43.6707 28.3637 43.1355 27.8814C38.7307 23.9236 46.4818 14.0495 46.4818 14.0495C40.5009 12.6204 37.3428 18.3779 36.0549 17.7251C34.8787 17.137 35.5609 15.5021 37.3193 10.7562C40.3068 2.67582 35.7256 0 35.7256 0C35.7256 10.321 29.2566 7.73928 27.604 13.8319C26.6454 17.3605 28.0392 25.3526 27.2159 25.3526C23.9226 25.3526 22.8816 15.6432 22.8816 15.6432C19.6471 20.248 22.223 32.6508 22.223 32.6508C21.729 32.8743 17.3183 29.9103 17.3183 28.2108C17.3183 21.0713 14.2661 20.742 14.2661 20.742C15.4423 30.1515 13.3898 27.8285 12.7841 31.6099C12.2313 35.0797 15.8598 40.8312 14.5954 41.1017C13.331 41.3723 10.2612 37.2086 10.2612 37.2086C8.39106 56.6862 24.5283 59.3208 24.5283 59.3208Z" fill="#231F20"/>
</svg>
