<svg width="57" height="72" viewBox="0 0 57 72" fill="none" xmlns="http://www.w3.org/2000/svg">
<path d="M1.2308 45.2978C0.927416 45.3976 0.674001 45.6102 0.522974 45.8916C0.371947 46.173 0.334863 46.5017 0.419392 46.8097L7.75734 71.1419C7.85158 71.4489 8.06354 71.706 8.34688 71.8571C8.63021 72.0083 8.96186 72.041 9.26928 71.9483L16.451 69.7509L7.88334 43.171L1.2308 45.2978Z" fill="#231F20"/>
<path d="M56.5732 56.2089L49.0135 31.4533C48.967 31.3015 48.8909 31.1604 48.7896 31.0381C48.6883 30.9157 48.5638 30.8147 48.4232 30.7407C48.2827 30.6667 48.1289 30.6212 47.9708 30.6068C47.8126 30.5925 47.6532 30.6095 47.5016 30.6571L40.8037 32.7738L49.4823 59.6561L55.7568 57.7309C55.9105 57.6847 56.0535 57.6087 56.1778 57.5072C56.302 57.4057 56.405 57.2807 56.4809 57.1393C56.5567 56.9979 56.6039 56.8429 56.6198 56.6833C56.6356 56.5236 56.6198 56.3624 56.5732 56.2089Z" fill="#231F20"/>
<path d="M26.8733 26.711C27.1359 25.7854 27.2566 24.8253 27.2311 23.8635C27.1606 22.2457 26.7272 20.9051 27.2311 19.1412C27.2311 19.1412 24.3333 17.6595 24.2073 21.6611C24.1937 22.6641 24.0236 23.6588 23.7033 24.6094C22.5038 23.8937 21.5664 23.4603 21.0473 23.4603C20.5282 23.4603 19.8881 23.8231 18.477 26.4539C17.9722 25.9163 17.6709 25.2194 17.6253 24.4834C17.343 22.2255 19.8378 20.5725 20.5887 18.7682C21.1179 17.4881 20.8104 15.4268 20.508 14.0711C29.9476 10.2006 26.0216 0 26.0216 0L5.07617 6.15864C5.07617 6.15864 5.58015 17.2462 16.9953 15.0992C17.2271 16.0266 17.3279 17.1504 16.7887 17.8711C15.7303 19.2823 13.0592 22.3717 13.0844 25.3804C13.1139 26.5229 13.4229 27.6407 13.9843 28.6361C14.5457 29.6315 15.3425 30.4742 16.3048 31.0905C15.1709 33.7062 13.7849 37.2038 12.0009 41.8908L15.1407 40.8829C16.325 37.7431 17.5245 34.5126 18.598 31.8768C19.5706 32.0044 20.558 31.9618 21.516 31.7508C23.2008 31.4538 24.7063 30.5188 25.7192 29.1401C28.098 30.7831 31.0009 32.9301 33.7022 35.0065L12.0009 41.8757L20.5937 68.4909L45.3543 60.9312L36.6858 34.0842C33.6619 31.7508 29.9627 28.8781 26.8733 26.711ZM21.1632 26.8974C21.0787 26.9223 20.9929 26.9425 20.9062 26.9579C21.0225 26.7659 21.1522 26.5824 21.2943 26.4086C21.4454 26.4741 21.637 26.5698 21.8385 26.6757C21.6135 26.7646 21.3828 26.8387 21.1481 26.8974H21.1632Z" fill="#231F20"/>
</svg>
