<svg width="69" height="72" viewBox="0 0 69 72" fill="none" xmlns="http://www.w3.org/2000/svg">
<path d="M45.1622 66.6529L39.2224 60.9863V60.2557C39.9533 60.1693 40.6271 59.8177 41.1161 59.2675C41.605 58.7174 41.8751 58.007 41.8751 57.271C41.8751 56.5349 41.605 55.8245 41.1161 55.2744C40.6271 54.7242 39.9533 54.3726 39.2224 54.2862V45.228C39.2224 45.228 30.0395 31.4595 29.3267 30.5388C27.8833 28.7034 3.03113 35.5817 3.03113 35.5817C2.34587 35.8002 1.76118 36.2562 1.38243 36.8677C1.00369 37.4791 0.855809 38.2057 0.965444 38.9166C1.07508 39.6274 1.43502 40.2757 1.98039 40.7446C2.52576 41.2135 3.22069 41.4722 3.93992 41.474C4.21608 41.4702 4.49021 41.4262 4.75368 41.3434L20.3397 37.2449L26.826 46.4219L19.229 54.4288L22.0326 60.5289L32.6114 60.3567L32.5342 60.5289V63.6295L41.0816 71.0424L41.2301 71.1731L41.4439 71.3572C42.074 71.8511 42.8746 72.0744 43.6693 71.9781C44.4641 71.8817 45.1881 71.4736 45.682 70.8434C46.1758 70.2133 46.3991 69.4128 46.3028 68.618C46.2064 67.8232 45.7983 67.0992 45.1682 66.6054L45.1622 66.6529ZM32.7302 54.2387L29.4039 54.1318V52.9082L31.6492 50.8708H32.7302V54.2387Z" fill="#231F20"/>
<path d="M19.4428 29.3449C20.8619 29.3461 22.2495 28.9264 23.4302 28.139C24.6108 27.3515 25.5314 26.2316 26.0756 24.921C26.6197 23.6103 26.763 22.1677 26.4873 20.7756C26.2116 19.3835 25.5293 18.1044 24.5266 17.1001C23.524 16.0958 22.246 15.4114 20.8544 15.1334C19.4627 14.8553 18.0199 14.9962 16.7084 15.5382C15.3968 16.0802 14.2754 16.999 13.486 18.1783C12.6966 19.3576 12.2746 20.7445 12.2734 22.1637C12.2727 23.106 12.4575 24.0392 12.8174 24.91C13.1772 25.7808 13.7051 26.5723 14.3708 27.2391C15.0366 27.906 15.8271 28.4351 16.6974 28.7965C17.5676 29.1578 18.5005 29.3441 19.4428 29.3449Z" fill="#231F20"/>
<path d="M53.8976 -4.54357e-05L32.2534 14.1718L46.4252 35.816L68.0694 21.6442L53.8976 -4.54357e-05Z" fill="#231F20"/>
</svg>
