<svg width="73" height="72" viewBox="0 0 73 72" fill="none" xmlns="http://www.w3.org/2000/svg">
<path d="M30.3682 48.9301C32.2624 49.8433 34.3366 50.322 36.4394 50.3313C38.5422 50.3407 40.6206 49.8803 42.5228 48.984L36.4216 43.1282L30.3682 48.9301Z" fill="#231F20"/>
<path d="M49.3011 29.5185C48.2995 27.5363 46.8521 25.8131 45.0725 24.4844C43.2929 23.1557 41.2296 22.2575 39.0444 21.8605L40.6371 30.716L49.3011 29.5185Z" fill="#231F20"/>
<path d="M34.1709 21.8425C31.9497 22.2138 29.8468 23.1019 28.0319 24.4353C26.217 25.7686 24.7409 27.5099 23.7227 29.5185L32.5662 30.716L34.1709 21.8425Z" fill="#231F20"/>
<path d="M22.1538 35.979C22.153 39.7141 23.6145 43.3011 26.2253 45.9722L29.9376 38.2902L22.2795 34.1827C22.2015 34.7784 22.1595 35.3783 22.1538 35.979Z" fill="#231F20"/>
<path d="M72.4909 35.8413C72.4909 35.1664 72.2228 34.5192 71.7455 34.042C71.2683 33.5647 70.6211 33.2966 69.9462 33.2966H69.8324C69.7665 32.4823 69.6827 31.68 69.563 30.9016H69.6647C70.3213 30.7477 70.8902 30.3401 71.2471 29.7678C71.6039 29.1956 71.7196 28.5053 71.5688 27.848C70.9667 25.2192 70.0709 22.6664 68.8983 20.2378C68.7542 19.9355 68.5517 19.6645 68.3026 19.4406C68.0534 19.2166 67.7625 19.0441 67.4466 18.9328C67.1306 18.8216 66.7958 18.7738 66.4613 18.7923C66.1268 18.8107 65.7993 18.895 65.4974 19.0403L65.4076 19.1002C65.0084 18.3977 64.5773 17.7151 64.1143 17.0525C64.1412 17.0311 64.1692 17.0111 64.1981 16.9926C64.4614 16.7836 64.6806 16.5244 64.8429 16.23C65.0052 15.9356 65.1074 15.6119 65.1436 15.2777C65.1798 14.9435 65.1493 14.6054 65.0538 14.2831C64.9583 13.9608 64.7997 13.6606 64.5873 13.4001C62.9005 11.3011 60.9824 9.399 58.8692 7.7299C58.6072 7.51881 58.3058 7.36191 57.9826 7.26833C57.6594 7.17475 57.3208 7.14636 56.9865 7.1848C56.6523 7.22324 56.329 7.32775 56.0354 7.49226C55.7419 7.65676 55.484 7.87798 55.2767 8.14304L55.2288 8.22088C54.5582 7.77181 53.8637 7.3467 53.1571 6.93955C53.1805 6.91202 53.2006 6.88188 53.217 6.84973C53.3613 6.54865 53.4448 6.22206 53.4626 5.88868C53.4805 5.55529 53.4325 5.22165 53.3212 4.90686C53.21 4.59207 53.0378 4.30231 52.8144 4.05417C52.591 3.80603 52.3209 3.60439 52.0195 3.46079C49.587 2.29984 47.0325 1.41418 44.4034 0.820293C44.0737 0.746585 43.7327 0.73924 43.4002 0.798686C43.0677 0.858131 42.7504 0.98318 42.4667 1.16654C42.183 1.3499 41.9387 1.58789 41.748 1.86665C41.5572 2.14541 41.4239 2.45936 41.3557 2.79019C41.3557 2.82611 41.3557 2.86204 41.3557 2.89198C40.5594 2.77821 39.7571 2.69439 38.9607 2.6405C38.9607 2.60458 38.9607 2.56865 38.9607 2.53273C38.9575 1.85991 38.688 1.21572 38.2112 0.741086C37.7343 0.266449 37.0888 -7.44986e-06 36.416 1.56221e-10C33.7256 0.00413601 31.0442 0.311443 28.4227 0.916095C28.0966 0.990929 27.7885 1.12932 27.516 1.32335C27.2435 1.51738 27.0119 1.76324 26.8345 2.04686C26.6571 2.33048 26.5373 2.64631 26.4821 2.97625C26.4269 3.3062 26.4373 3.6438 26.5126 3.96973C26.5126 3.96973 26.5126 4.02961 26.5126 4.05955C25.7403 4.30504 24.9798 4.58046 24.2314 4.87385C24.2222 4.84095 24.2102 4.8089 24.1955 4.77805C23.903 4.16848 23.3806 3.69994 22.7429 3.47539C22.1052 3.25085 21.4044 3.28867 20.7946 3.58054C18.374 4.7577 16.0926 6.20167 13.9927 7.88558C13.7308 8.09555 13.5129 8.35518 13.3515 8.64955C13.1901 8.94393 13.0884 9.26727 13.0523 9.60103C13.0161 9.93479 13.0462 10.2724 13.1408 10.5945C13.2354 10.9166 13.3926 11.2169 13.6035 11.4781C13.6244 11.5049 13.6485 11.5291 13.6754 11.5499C13.0766 12.1008 12.5138 12.6756 11.963 13.2684L11.8911 13.1965C11.6288 12.9862 11.3273 12.8299 11.0042 12.7368C10.6811 12.6437 10.3428 12.6155 10.0087 12.6539C9.67464 12.6923 9.35152 12.7966 9.05799 12.9606C8.76446 13.1247 8.50636 13.3453 8.29859 13.6096C6.62101 15.7166 5.18688 18.0064 4.0235 20.4354C3.87829 20.7368 3.79409 21.0639 3.77572 21.398C3.75735 21.732 3.80518 22.0664 3.91646 22.3819C4.02774 22.6973 4.20028 22.9877 4.42416 23.2363C4.64804 23.4849 4.91885 23.6868 5.22101 23.8304L5.32279 23.8663C5.0294 24.6147 4.75997 25.3811 4.52047 26.1595L4.42466 26.1236C3.76658 25.9769 3.07718 26.0967 2.50721 26.4569C1.93723 26.8171 1.53303 27.3882 1.383 28.0456C0.79841 30.6637 0.505234 33.3384 0.508822 36.021C0.509589 36.3532 0.576198 36.6821 0.704799 36.9884C0.833399 37.2948 1.02144 37.5727 1.25806 37.806C1.49467 38.0392 1.77518 38.2233 2.08335 38.3475C2.39153 38.4718 2.72127 38.5337 3.05352 38.5297H3.1613C3.22117 39.356 3.305 40.1703 3.42475 40.9786H3.32895C3.00312 41.0528 2.69514 41.1905 2.42267 41.384C2.1502 41.5774 1.9186 41.8227 1.74115 42.1059C1.56369 42.389 1.44389 42.7044 1.38859 43.034C1.3333 43.3635 1.34361 43.7007 1.41893 44.0263C2.02185 46.668 2.92171 49.233 4.10134 51.6724C4.30972 52.1033 4.63544 52.4668 5.04108 52.721C5.44673 52.9752 5.91585 53.1098 6.39456 53.1094C6.7789 53.1119 7.15842 53.0237 7.50225 52.8519C7.53419 52.8375 7.56433 52.8194 7.59207 52.798C7.99922 53.4986 8.43032 54.1811 8.88537 54.8517C8.8553 54.8661 8.82714 54.8842 8.80154 54.9056C8.53781 55.1142 8.31815 55.3731 8.15529 55.6673C7.99244 55.9614 7.88965 56.285 7.85288 56.6193C7.81612 56.9535 7.84612 57.2917 7.94113 57.6142C8.03614 57.9368 8.19429 58.2372 8.40637 58.4981C10.0866 60.6006 11.9988 62.5067 14.1065 64.1803C14.5535 64.5425 15.1119 64.7392 15.6872 64.7371C16.0701 64.7374 16.4482 64.6514 16.7934 64.4855C17.1385 64.3197 17.4419 64.0782 17.681 63.7791C17.6969 63.7499 17.7149 63.7218 17.7349 63.6953C18.3996 64.1504 19.0881 64.5695 19.7946 64.9766C19.7946 65.0126 19.7527 65.0365 19.7348 65.0724C19.4448 65.6816 19.408 66.3809 19.6324 67.0172C19.8568 67.6535 20.3242 68.1749 20.9323 68.4674C23.3617 69.6321 25.9145 70.5198 28.5424 71.1139C28.7266 71.159 28.9156 71.1811 29.1052 71.1797C29.6818 71.1791 30.2411 70.9826 30.6915 70.6226C31.1418 70.2625 31.4565 69.7602 31.5841 69.1978C31.5841 69.1619 31.5841 69.132 31.5841 69.0961C32.3744 69.2098 33.1827 69.2936 33.9791 69.3535C33.9791 69.3894 33.9791 69.4254 33.9791 69.4613C33.9822 70.1347 34.2516 70.7795 34.7283 71.2551C35.205 71.7306 35.8504 71.9984 36.5238 72C39.2153 71.9989 41.8983 71.6976 44.5231 71.1019C45.1806 70.9506 45.7514 70.5449 46.1105 69.9737C46.4696 69.4025 46.5878 68.7123 46.4391 68.0542C46.4391 68.0183 46.4391 67.9943 46.4092 67.9584C47.1816 67.7189 47.942 67.4435 48.6904 67.1501C48.7051 67.181 48.7171 67.213 48.7264 67.2459C48.8693 67.5494 49.0711 67.8214 49.32 68.0463C49.569 68.2711 49.8601 68.4442 50.1765 68.5557C50.4929 68.6671 50.8283 68.7145 51.1631 68.6952C51.498 68.676 51.8258 68.5904 52.1273 68.4434C54.551 67.27 56.8364 65.8301 58.9411 64.1504C59.2041 63.9413 59.4232 63.6822 59.5856 63.388C59.748 63.0939 59.8505 62.7704 59.8872 62.4364C59.924 62.1024 59.8942 61.7645 59.7996 61.442C59.7051 61.1196 59.5476 60.8191 59.3363 60.5578C59.3363 60.5578 59.2824 60.5099 59.2644 60.486C59.8632 59.9292 60.426 59.3603 60.9769 58.7676C61.0013 58.7931 61.0273 58.8171 61.0547 58.8394C61.5017 59.2016 62.0601 59.3983 62.6354 59.3963C63.0183 59.3965 63.3964 59.3105 63.7416 59.1446C64.0867 58.9788 64.3901 58.7374 64.6292 58.4383C66.3085 56.3322 67.7465 54.0447 68.9163 51.6185C69.0607 51.3169 69.1443 50.9899 69.1622 50.6561C69.1802 50.3222 69.1322 49.9882 69.021 49.6729C68.9098 49.3576 68.7375 49.0673 68.5141 48.8186C68.2907 48.57 68.0204 48.3677 67.7188 48.2235L67.617 48.1876C67.9104 47.4392 68.2158 46.6728 68.4253 45.9004L68.5211 45.9303C68.7058 45.9729 68.8945 45.995 69.084 45.9962C69.6603 45.9945 70.219 45.7976 70.6692 45.4377C71.1193 45.0778 71.4343 44.5761 71.5628 44.0143C72.1742 41.3612 72.4855 38.6478 72.4909 35.9252V35.8413ZM36.5058 54.5883C32.8258 54.5859 29.2291 53.4925 26.1704 51.4462C23.1117 49.4 20.7283 46.4928 19.3217 43.0922C17.915 39.6916 17.5482 35.9503 18.2676 32.3412C18.987 28.7322 20.7603 25.4175 23.3633 22.8161C25.9663 20.2148 29.2822 18.4436 32.8917 17.7265C36.5012 17.0094 40.2423 17.3787 43.642 18.7875C47.0417 20.1963 49.9474 22.5815 51.9916 25.6416C54.0359 28.7016 55.127 32.299 55.127 35.979C55.1223 40.9151 53.1585 45.6475 49.667 49.1367C46.1756 52.626 41.4419 54.5867 36.5058 54.5883Z" fill="#231F20"/>
<path d="M46.6724 46.092C49.3541 43.4094 50.8615 39.7722 50.8637 35.9791C50.86 35.4268 50.826 34.8751 50.7619 34.3265L42.9961 38.4998L46.6724 46.092Z" fill="#231F20"/>
</svg>
