<svg width="16" height="16" viewBox="0 0 16 16" fill="none" xmlns="http://www.w3.org/2000/svg">
<path d="M3.66595 10C4.24905 9.99829 4.81009 9.77692 5.23728 9.38002L9.41061 11.7647C9.12156 12.8942 9.7056 14.0646 10.7819 14.5128C11.8582 14.961 13.1004 14.551 13.6984 13.5502C14.2965 12.5494 14.0691 11.2612 13.1644 10.5257C12.2598 9.79018 10.9524 9.83035 10.0946 10.62L5.92128 8.23536C5.96503 8.06805 5.98919 7.89624 5.99328 7.72336L10.0939 5.38002C10.9079 6.11998 12.1289 6.18859 13.0206 5.54447C13.9123 4.90036 14.2309 3.71965 13.7842 2.71441C13.3375 1.70918 12.2477 1.15429 11.172 1.3844C10.0964 1.6145 9.32895 2.56668 9.33261 3.66669C9.33499 3.85874 9.36119 4.04976 9.41061 4.23536L5.62128 6.40002C5.01428 5.46097 3.82643 5.08453 2.78935 5.50256C1.75228 5.92059 1.15754 7.01557 1.37145 8.11308C1.58537 9.21058 2.54779 10.0021 3.66595 10Z" fill="#007899"/>
</svg>
