<svg width="109" height="72" viewBox="0 0 109 72" fill="none" xmlns="http://www.w3.org/2000/svg">
<path d="M5.1018 0.817261H0.479004V72H5.1018V0.817261Z" fill="#231F20"/>
<path d="M108.521 0.817261H103.898V72H108.521V0.817261Z" fill="#231F20"/>
<path d="M62.9033 67.7405L62.7712 67.6249C62.6749 67.5545 62.5839 67.4772 62.4988 67.3937L57.6366 63.1342C54.4171 67.8313 51.3298 71.9918 51.3298 71.9918H101.132L89.344 53.9711C87.6105 51.313 83.2271 40.7631 76.2351 40.7631C70.1346 40.7631 67.6004 45.9473 64.7937 51.4451L71.117 56.9842C71.4321 57.1818 71.6986 57.4479 71.8968 57.7626C72.0949 58.0774 72.2197 58.4327 72.2617 58.8023C72.3037 59.1718 72.262 59.5461 72.1395 59.8973C72.0171 60.2486 71.8172 60.5677 71.5545 60.831L67.7324 60.5586L64.125 57.4052L48.9688 44.1312V16.155C49.6241 16.3243 50.298 16.4103 50.9748 16.4109C52.598 16.4109 54.1848 15.9295 55.5344 15.0275C56.8839 14.1255 57.9356 12.8435 58.5564 11.3436C59.1773 9.84381 59.3393 8.19355 59.022 6.60162C58.7047 5.0097 57.9224 3.54763 56.774 2.4004C55.6256 1.25318 54.1628 0.472341 52.5705 0.156664C50.9783 -0.159012 49.3282 0.00466027 47.829 0.626978C46.3298 1.2493 45.0488 2.30229 44.1482 3.65276C43.2476 5.00323 42.7677 6.59049 42.7693 8.21372C42.7703 8.96819 42.8787 9.71866 43.0913 10.4426H20.7038C19.712 10.4304 18.7491 10.7758 17.9911 11.4155C17.2332 12.0552 16.7309 12.9465 16.5763 13.9262H16.5102V19.845C16.5067 20.8835 16.8948 21.8851 17.5971 22.6501C18.2994 23.4152 19.2643 23.8873 20.2993 23.9725L23.2463 26.5563L17.2036 32.3348L16.89 50.9003L10.2364 64.8017C10.238 64.8209 10.238 64.8402 10.2364 64.8595C10.0305 65.3654 9.92397 65.9064 9.92274 66.4527C9.90365 67.3862 10.2017 68.2986 10.7681 69.0409C11.3345 69.7832 12.1359 70.3115 13.0413 70.5396C13.9468 70.7676 14.9028 70.6819 15.7533 70.2965C16.6037 69.911 17.2983 69.2486 17.7237 68.4174L17.8393 68.178C17.8393 68.1119 17.8971 68.0541 17.9218 67.9881L24.5258 53.418L24.823 43.1736L33.4907 50.9168L35.1913 67.014C35.2287 67.556 35.3725 68.0854 35.6144 68.5718C35.8564 69.0583 36.1918 69.4923 36.6016 69.8492C37.0113 70.206 37.4873 70.4786 38.0023 70.6515C38.5174 70.8244 39.0615 70.8941 39.6036 70.8567C40.1456 70.8193 40.6749 70.6755 41.1614 70.4335C41.6479 70.1916 42.0819 69.8561 42.4387 69.4464C42.7955 69.0367 43.0682 68.5607 43.2411 68.0456C43.4139 67.5305 43.4837 66.9864 43.4463 66.4444C43.4457 66.1672 43.4181 65.8907 43.3637 65.6189L41.0193 47.5075L30.1144 35.9505L32.0296 34.2995L40.5983 41.8033V44.1477C40.5882 44.9136 40.7914 45.6672 41.1852 46.3242C41.579 46.9811 42.1478 47.5156 42.828 47.8677C43.5083 48.2198 44.273 48.3757 45.0368 48.3179C45.8006 48.2601 46.5332 47.9909 47.1527 47.5405L61.6072 60.2036L65.2394 63.3818L66.0649 67.3194C65.6732 67.7963 65.1175 68.1098 64.5067 68.1984C63.8959 68.2869 63.274 68.1442 62.7629 67.7982L62.9033 67.7405ZM25.9869 23.989L24.0635 22.338C24.5893 21.6371 24.8784 20.7871 24.889 19.911V18.3674H31.9305L25.9869 23.989ZM34.9188 31.8065L40.6973 26.7709V36.8338L34.9188 31.8065Z" fill="#231F20"/>
</svg>
