<svg width="22" height="22" viewBox="0 0 22 22" fill="none" xmlns="http://www.w3.org/2000/svg">
<path fill-rule="evenodd" clip-rule="evenodd" d="M6 13.7V18.2C6 19.1941 6.78349 20 7.74998 20H18.2498C19.2163 20 19.9999 19.1941 19.9999 18.2V8.3C20.0002 8.29156 19.9996 8.2831 19.9981 8.2748C19.9954 8.2669 19.9933 8.25877 19.9919 8.2505C19.9879 8.17146 19.9735 8.09335 19.9491 8.0183L19.9412 7.9949C19.9396 7.99013 19.938 7.98535 19.9365 7.98059C19.9312 7.9647 19.9261 7.94893 19.9193 7.9337C19.877 7.83565 19.8177 7.74631 19.7443 7.67L14.4944 2.27C14.4202 2.19457 14.3333 2.13358 14.238 2.09C14.2194 2.08014 14.2001 2.07171 14.1803 2.0648L14.1558 2.0567C14.0825 2.03132 14.0063 2.01589 13.9291 2.0108C13.9202 2.00992 13.9114 2.00812 13.9029 2.0054C13.8939 2.00224 13.8844 2.00043 13.8749 2H10.3749V3.8H12.9999V8.3C12.9999 8.79706 13.3917 9.2 13.8749 9.2H18.2498V18.2H7.74998V13.7H6ZM14.7499 7.4V5.0726L17.0126 7.4H14.7499Z" fill="#3C4F55"/>
<path fill-rule="evenodd" clip-rule="evenodd" d="M4 9.5H6V4.5H4L6.5 2L9 4.5H7V9.5H9L6.5 12L4 9.5ZM6.01184 10.3333L6.5 10.8215L6.98816 10.3333H6.01184ZM6.98816 3.66667L6.5 3.17851L6.01184 3.66667H6.98816Z" fill="#3C4F55" stroke="#3C4F55"/>
</svg>
