<svg width="15" height="14" viewBox="0 0 15 14" fill="none" xmlns="http://www.w3.org/2000/svg">
<path d="M3.50391 13.8359C2.99544 13.8359 2.54785 13.7912 2.16113 13.7017C1.77799 13.6157 1.44678 13.4331 1.16748 13.1538C0.888184 12.8781 0.705566 12.5487 0.619629 12.1655C0.537272 11.7824 0.496094 11.3348 0.496094 10.8228V3.41064C0.496094 2.90218 0.539062 2.45817 0.625 2.07861C0.710938 1.69548 0.891764 1.36605 1.16748 1.09033C1.44678 0.811035 1.77799 0.628418 2.16113 0.54248C2.54785 0.452962 2.99365 0.408203 3.49854 0.408203H11.4854C11.9974 0.408203 12.445 0.452962 12.8281 0.54248C13.2148 0.628418 13.5461 0.809245 13.8218 1.08496C14.1011 1.36426 14.2837 1.69548 14.3696 2.07861C14.4556 2.45817 14.4985 2.90397 14.4985 3.41602V10.8228C14.4985 11.3348 14.4556 11.7824 14.3696 12.1655C14.2837 12.5487 14.1011 12.8781 13.8218 13.1538C13.5461 13.4331 13.2148 13.6157 12.8281 13.7017C12.445 13.7912 11.9974 13.8359 11.4854 13.8359H3.50391ZM3.35889 12.6382H11.6357C11.915 12.6382 12.1675 12.6131 12.3931 12.563C12.6222 12.5164 12.8084 12.4215 12.9517 12.2783C13.0913 12.1423 13.1844 11.9596 13.231 11.7305C13.2775 11.5049 13.3008 11.2524 13.3008 10.9731V3.271C13.3008 2.9917 13.2775 2.73926 13.231 2.51367C13.1844 2.28451 13.0913 2.1001 12.9517 1.96045C12.8084 1.8208 12.6222 1.7277 12.3931 1.68115C12.1675 1.63102 11.915 1.60596 11.6357 1.60596H3.36963C3.08675 1.60596 2.82894 1.63102 2.59619 1.68115C2.36344 1.7277 2.17904 1.8208 2.04297 1.96045C1.90332 2.1001 1.80843 2.28451 1.7583 2.51367C1.71175 2.73926 1.68848 2.99528 1.68848 3.28174V10.9731C1.68848 11.2524 1.71175 11.5049 1.7583 11.7305C1.80843 11.9596 1.90332 12.1423 2.04297 12.2783C2.18262 12.418 2.36702 12.5129 2.59619 12.563C2.82536 12.6131 3.07959 12.6382 3.35889 12.6382ZM3.1333 8.78174C3.03304 8.78174 2.9471 8.74772 2.87549 8.67969C2.80387 8.60807 2.76807 8.52393 2.76807 8.42725C2.76807 8.32699 2.80387 8.24284 2.87549 8.1748C2.9471 8.10319 3.03304 8.06738 3.1333 8.06738H11.8613C11.9616 8.06738 12.0457 8.10319 12.1138 8.1748C12.1854 8.24284 12.2212 8.32699 12.2212 8.42725C12.2212 8.52393 12.1854 8.60807 12.1138 8.67969C12.0457 8.74772 11.9616 8.78174 11.8613 8.78174H3.1333ZM3.1333 10.2104C3.03304 10.2104 2.9471 10.1764 2.87549 10.1084C2.80387 10.0368 2.76807 9.94906 2.76807 9.84521C2.76807 9.74854 2.80387 9.66618 2.87549 9.59814C2.9471 9.53011 3.03304 9.49609 3.1333 9.49609H11.8613C11.9616 9.49609 12.0457 9.53011 12.1138 9.59814C12.1854 9.66618 12.2212 9.74854 12.2212 9.84521C12.2212 9.94906 12.1854 10.0368 12.1138 10.1084C12.0457 10.1764 11.9616 10.2104 11.8613 10.2104H3.1333ZM3.1333 11.6338C3.03304 11.6338 2.9471 11.598 2.87549 11.5264C2.80387 11.4583 2.76807 11.3742 2.76807 11.2739C2.76807 11.1737 2.80387 11.0877 2.87549 11.0161C2.9471 10.9481 3.03304 10.9141 3.1333 10.9141H8.39697C8.50081 10.9141 8.58675 10.9481 8.65479 11.0161C8.7264 11.0877 8.76221 11.1737 8.76221 11.2739C8.76221 11.3742 8.7264 11.4583 8.65479 11.5264C8.58675 11.598 8.50081 11.6338 8.39697 11.6338H3.1333ZM3.40723 4.87695C3.17806 4.87695 2.99186 4.80534 2.84863 4.66211C2.7054 4.51888 2.63379 4.33268 2.63379 4.10352V3.24414C2.63379 3.01855 2.7054 2.83415 2.84863 2.69092C2.99186 2.54769 3.17806 2.47607 3.40723 2.47607H4.61035C4.83594 2.47607 5.01855 2.54769 5.1582 2.69092C5.30143 2.83415 5.37305 3.01855 5.37305 3.24414V4.10352C5.37305 4.33268 5.30143 4.51888 5.1582 4.66211C5.01855 4.80534 4.83594 4.87695 4.61035 4.87695H3.40723Z" fill="#839296"/>
</svg>
