<svg width="50" height="50" viewBox="0 0 54 47" fill="none" xmlns="http://www.w3.org/2000/svg">
<path d="M30.8996 37.9086C33.1526 37.2954 35.2123 36.069 36.8517 34.431C39.3148 31.9782 40.9542 28.4921 40.9542 24.8129C40.9542 23.5865 40.7524 22.5617 40.5423 21.5369H41.5679C43.6192 21.5369 45.4686 21.9485 47.3097 23.1749C49.5712 24.4013 51.2105 26.4509 52.2362 28.7021C52.4379 28.9037 52.6481 29.1137 52.8498 29.1137H53.0516C53.4635 28.9121 53.6653 28.7021 53.4635 28.2905C52.4379 25.0145 50.1765 21.9485 46.8978 20.1005C44.6364 18.8741 42.1816 18.2608 39.7184 18.2608H39.1047C40.5422 16.0096 41.3577 13.3468 41.3577 10.4824C41.3577 6.59314 39.9201 3.31711 37.4569 0.654283C37.2552 0.452681 37.045 0.452683 37.045 0.452683C36.9105 0.452683 36.7732 0.519882 36.6331 0.654283C36.4313 0.855885 36.2211 1.26749 36.6331 1.47749C38.0706 3.52711 38.8945 5.77833 38.8945 8.43276C38.8945 10.8856 38.0706 13.1368 36.8432 15.1864C34.38 12.7336 30.8912 11.2972 27.2006 11.2972C23.51 11.2972 20.0212 12.7336 17.558 15.1864C16.3222 13.3468 15.5067 10.8856 15.5067 8.43276C15.5067 5.76993 16.3306 3.31711 17.7598 1.47749C17.9615 1.27589 17.9615 0.864285 17.7598 0.654283C17.558 0.444281 17.558 0.452683 17.3478 0.452683C17.1377 0.452683 16.9359 0.452681 16.9359 0.654283C14.4727 3.10711 13.0351 6.59314 13.0351 10.4824C13.0351 13.3468 13.859 16.0096 15.2966 18.2608H14.4727C12.0095 18.2608 9.54631 18.8741 7.29328 20.1005C4.00621 21.9401 1.75317 25.0145 0.727539 28.2905C0.727539 28.7021 0.727544 28.9037 1.13948 29.1137H1.34125C1.54301 29.1137 1.75318 28.9121 1.95494 28.7021C2.98057 26.4509 4.6199 24.4013 6.88134 23.1749C8.73084 22.1501 10.7821 21.5369 12.6316 21.5369H13.6572C13.4555 22.5617 13.2453 23.7881 13.2453 24.8129C13.2453 28.7021 14.8846 31.9782 17.3478 34.431C18.9872 36.069 21.0384 37.2954 23.2999 37.9086C22.2742 39.9583 20.6349 41.7979 18.5836 43.0243C16.7341 44.0491 14.6829 44.6623 12.8418 44.6623H11.4042C10.9923 44.6623 10.7905 44.8639 10.7905 45.2755C10.7905 45.6871 10.9923 45.8887 11.2024 46.0987C12.2281 46.3003 13.4639 46.5103 14.4895 46.5103C16.9527 46.5103 19.4159 45.8971 21.6689 44.6707C24.1321 43.2343 25.9816 41.1931 27.209 38.9418C28.4364 41.3947 30.2859 43.4443 32.7491 44.8807C35.0106 46.1071 37.4654 46.7203 39.9286 46.7203C40.9542 46.7203 42.19 46.5187 43.2156 46.3087C43.6276 46.3087 43.8293 45.8971 43.6275 45.4939C43.6275 45.0823 43.2156 44.8807 43.0139 44.8807H41.5763C39.525 44.8807 37.6755 44.4691 35.826 43.2427C33.573 41.8063 31.9253 39.9666 30.8996 37.917V37.9086ZM24.3339 34.6326C22.4844 34.221 21.0468 33.1962 19.8194 31.9698C17.9699 30.1302 16.7425 27.4673 16.7425 24.6029C16.7425 23.7797 16.9443 22.7633 17.1545 21.9401C19.6177 22.9649 21.6689 24.6029 23.1065 27.0557C24.1321 28.8954 24.7458 30.945 24.7458 32.7846C24.5441 33.3978 24.3339 34.011 24.3339 34.6242V34.6326ZM19.8194 17.026C21.6689 15.1864 24.3339 13.96 27.209 13.96C30.0842 13.96 32.7491 15.1864 34.5986 17.026C32.5474 18.664 30.0842 19.6889 27.209 19.6889C24.3339 19.6889 21.8707 18.664 19.8194 17.026ZM27.209 26.4425C26.1834 26.4425 25.3595 25.6193 25.3595 24.6029C25.3595 23.5865 26.1834 22.7633 27.209 22.7633C28.2347 22.7633 29.0585 23.5781 29.0585 24.6029C29.0585 25.6277 28.2347 26.4425 27.209 26.4425ZM34.5986 31.9698C33.3712 33.1962 31.7235 34.221 29.8824 34.6326C29.8824 34.0194 29.6806 33.4062 29.6806 32.793C29.6806 30.7434 30.0926 28.9037 31.32 27.0641C32.7575 24.6113 34.8088 22.9733 37.272 21.9485C37.4738 22.7717 37.6839 23.5865 37.6839 24.6113C37.6839 27.4757 36.4481 30.1385 34.607 31.9782L34.5986 31.9698Z" fill="currentColor"/>
</svg>
