<svg width="50" height="50" viewBox="0 0 33 58" fill="none" xmlns="http://www.w3.org/2000/svg">
<path d="M31.8523 53.5269L22.7813 34.6183V21.615C23.5716 21.615 24.3618 20.8254 24.3618 20.0358C24.3618 19.0529 23.5716 18.4565 22.7813 18.4565H9.96936C8.98576 18.4565 8.38887 19.2461 8.38887 20.0358C8.38887 20.8254 8.97734 21.615 9.76758 21.615V34.8115L0.503269 53.5269C0.301505 53.9217 0.301514 54.3165 0.301514 54.7113C0.301514 55.2993 0.503279 56.0889 1.09176 56.4837C1.48688 56.8785 2.27711 57.2733 2.86558 57.2733H29.4816C30.2718 57.2733 30.8603 56.8785 31.2554 56.4837C31.6506 56.0889 32.0457 55.2993 32.0457 54.7113C32.0457 54.3165 32.0457 53.9217 31.8523 53.5269ZM9.96936 41.5148L12.7268 35.9959C12.9202 35.6011 12.9201 35.2063 12.9201 34.8115V21.615H19.6204V23.7822H16.2661C15.4758 23.7822 14.8874 24.3702 14.8874 25.1598C14.8874 25.9494 15.4758 26.5374 16.2661 26.5374H19.6204V30.6703H16.2661C15.4758 30.6703 14.8874 31.2583 14.8874 32.0479C14.8874 32.8375 15.4758 33.4255 16.2661 33.4255H19.6204V35.1979C19.6204 35.5927 19.6204 35.9875 19.8137 36.3823L22.5712 42.0944L9.95253 41.5064L9.96936 41.5148Z" fill="currentColor"/>
<path d="M15.2993 12.9463C15.6944 14.5255 17.0731 15.7015 18.6536 15.7015C20.6208 15.7015 22.2013 14.1223 22.2013 12.1567C22.2013 10.191 20.6208 8.61182 18.6536 8.61182C17.8634 8.61182 17.2749 8.81342 16.678 9.19983L15.2993 11.955C15.106 12.5431 15.106 12.7447 15.2993 12.9379V12.9463Z" fill="currentColor"/>
<path d="M12.9285 13.7359C13.7187 13.7359 14.7023 13.3411 15.2908 12.9463V12.1567L16.6696 9.40149C16.4678 7.62908 14.8957 6.25146 12.9201 6.25146C10.7511 6.25146 9.17065 8.02388 9.17065 9.9979C9.17065 12.1651 10.7511 13.7443 12.9201 13.7443L12.9285 13.7359Z" fill="currentColor"/>
<path d="M19.242 5.06686C20.4273 5.06686 21.4109 4.08405 21.4109 2.89964C21.4109 1.71523 20.4273 0.732422 19.242 0.732422C18.0566 0.732422 17.073 1.71523 17.073 2.89964C17.073 4.08405 18.0566 5.06686 19.242 5.06686Z" fill="currentColor"/>
</svg>
