<svg width="50" height="50" viewBox="0 0 35 49" fill="none" xmlns="http://www.w3.org/2000/svg">
<path d="M12.5592 0.580078H5.38818V20.1271H12.5592V0.580078Z" fill="currentColor"/>
<path d="M29.5074 0.580078H22.3364V20.1271H29.5074V0.580078Z" fill="currentColor"/>
<path fill-rule="evenodd" clip-rule="evenodd" d="M34.7279 17.5229H0.16748V33.1639C0.16748 41.7992 7.17036 48.8048 15.821 48.8048H19.0828C27.725 48.8048 34.7363 41.8076 34.7363 33.1639V17.5229H34.7279ZM21.2014 33.0799C21.2014 33.0799 21.2434 33.1051 21.2602 33.1219C21.2854 33.1303 21.3022 33.1387 21.2938 33.1723C21.3275 33.2311 21.2854 33.3235 21.2014 33.4411V33.4579C20.1085 35.1043 17.8891 37.9267 16.2245 40.0015C15.14 41.354 14.2489 42.4376 13.8202 42.9668C13.6941 43.118 13.568 43.2692 13.4587 43.4036C13.3073 43.58 13.1812 43.7396 13.072 43.874C12.8282 44.168 12.7609 44.2436 12.7189 44.2436C12.702 44.2436 12.7021 44.2436 12.6852 44.2352C12.6852 44.2352 12.6852 44.2352 12.6768 44.2352C12.5171 44.1596 12.6012 43.9244 12.6012 43.9244C12.6012 43.916 12.6012 43.9076 12.6012 43.8992C12.6012 43.8992 12.6012 43.8992 12.6012 43.8908C12.6936 43.622 12.7777 43.3532 12.8618 43.0844C12.9459 42.8156 13.0299 42.5468 13.1224 42.278L13.341 41.5976C13.4923 41.1356 13.6436 40.7072 13.7949 40.304C14.0135 39.6152 14.2321 38.9263 14.4591 38.2375C14.6777 37.5487 14.8962 36.8599 15.1232 36.1711H14.9046C14.4675 36.1711 14.1144 36.1711 13.8958 36.1795C13.8566 36.1795 13.7529 36.0423 13.5848 35.7679C13.5848 35.7679 13.5511 35.7007 13.5259 35.6671C13.4419 35.5243 13.3242 35.3311 13.2821 35.2219C13.2737 35.2051 13.2737 35.1799 13.2737 35.1631C13.2653 35.1379 13.2737 35.1043 13.2989 35.0371C13.4166 34.7683 13.5343 34.5079 13.6436 34.2391C13.7529 33.9703 13.879 33.7099 13.9883 33.4411L15.3082 30.4255H13.4587H13.4166C13.383 30.4199 13.2233 30.1259 12.9374 29.5435L12.8197 29.2998L12.8366 29.2746C12.8366 29.2746 12.8366 29.2663 12.8366 29.2579C12.8366 29.2159 12.8534 29.1738 12.8702 29.1402C13.2653 28.0398 13.6688 26.9478 14.064 25.8558C14.3582 25.0494 14.6524 24.2514 14.9383 23.445C15.0812 23.0586 15.2241 22.6722 15.3502 22.2942C15.3754 22.2186 15.4091 22.1934 15.5015 22.1934L17.6621 22.1682H17.6789C18.528 22.143 19.4948 22.1262 20.2346 22.1262C20.2514 22.1262 20.2934 22.1262 21.1005 22.899C21.1677 22.9578 21.1677 22.9662 20.285 24.369C20.1085 24.6378 19.9319 24.9234 19.7722 25.1754C19.52 25.5702 19.3014 25.9062 19.2089 26.0574V26.0742H19.3014H19.4948C20.1001 26.0658 20.7222 26.049 21.3274 26.0322C21.3359 26.0322 21.3443 26.0322 21.3527 26.0322C21.3611 26.0322 21.3695 26.0322 21.3779 26.0322H21.3863C21.4536 26.0322 21.5376 26.0742 22.1345 26.5866C22.2018 26.6454 22.269 26.6958 22.3026 26.7294H22.3279L22.3531 26.7714C22.3783 26.8386 22.3867 26.8554 20.6297 29.6191C20.4027 29.9719 20.1757 30.3247 19.9571 30.6691C19.3434 31.6183 18.8222 32.4331 18.6793 32.6515C19.2089 32.6347 19.747 32.6263 20.2766 32.6179H20.3018C20.3018 32.6179 20.3439 32.6179 20.3607 32.6179H20.3775C20.4615 32.6179 20.6213 32.7187 20.9491 32.9455C20.966 32.9539 20.9828 32.9707 20.9996 32.9791C21.0752 33.0295 21.1509 33.0799 21.2098 33.1219L21.2014 33.0799Z" fill="currentColor"/>
</svg>
