<svg width="50" height="50" viewBox="0 0 53 44" fill="none" xmlns="http://www.w3.org/2000/svg">
<path d="M52.2719 39.3372C52.2719 39.3372 45.3531 17.2618 44.5629 14.6578C43.7727 12.247 41.4019 12.4486 41.4019 12.4486H33.6929C34.2898 11.2474 34.8782 9.84457 34.8782 8.43336C34.8782 4.21652 31.5155 0.604492 27.1692 0.604492C22.8229 0.604492 19.4601 4.01492 19.4601 8.43336C19.4601 9.83617 19.8552 11.239 20.6455 12.4486H11.7511C9.77548 12.4486 8.98523 14.2546 8.98523 14.2546C8.98523 14.2546 2.66329 34.7256 1.27617 39.1357C-0.11096 43.5541 3.84868 43.3525 3.84868 43.3525H50.2879C53.6507 43.5541 52.2636 39.3372 52.2636 39.3372H52.2719ZM26.9758 4.61972C29.1532 4.61972 30.927 6.42573 30.927 8.63495C30.927 10.8442 29.1448 12.6502 26.9758 12.6502C24.8069 12.6502 23.0246 10.8442 23.0246 8.63495C23.0246 6.42573 24.8069 4.61972 26.9758 4.61972ZM24.6051 34.7172L22.2344 29.5008L20.6539 31.9116V34.7172H17.8881V22.6799H20.6539V28.2995L24.4118 22.6799H26.9842L24.2184 26.8967L27.7745 34.7256H24.6135L24.6051 34.7172ZM30.3386 31.71C30.7337 32.3148 31.3306 32.7096 32.1208 32.7096C32.7177 32.7096 33.1128 32.508 33.5079 32.3064C33.9031 31.9032 34.1048 31.5 34.1048 30.702H31.9275V28.4927H36.8707V34.9104H35.6853C35.6853 34.5072 35.4835 33.9108 35.2902 33.5076C34.4999 34.5072 33.3146 35.112 32.1292 35.112C30.5487 35.112 29.3634 34.5072 28.5731 33.5076C27.7829 32.3064 27.186 30.8952 27.186 29.0891C27.186 27.0815 27.5811 25.6787 28.5731 24.4775C29.5651 23.2763 30.7505 22.6715 32.331 22.6715C33.7181 22.6715 34.7017 23.0747 35.4919 23.8727C36.2822 24.6791 36.8791 25.6787 37.0724 26.8799L34.4999 27.2831C34.2982 25.8803 33.5079 25.0739 32.5243 25.0739C31.7341 25.0739 31.1372 25.4771 30.7421 26.0735C30.347 26.6783 30.1452 27.6779 30.1452 29.0808C29.7501 30.0804 29.9434 30.8868 30.347 31.6848L30.3386 31.71Z" fill="currentColor"/>
</svg>
