<svg width="50" height="50" viewBox="0 0 59 50" fill="none" xmlns="http://www.w3.org/2000/svg">
<path d="M45.2415 30.9121C42.2907 30.9121 39.7686 33.3733 39.7686 36.2378C39.7686 39.1022 42.2991 41.5634 45.2415 41.5634C48.1838 41.5634 50.7143 39.1022 50.7143 36.2378C50.7143 33.3733 48.1838 30.9121 45.2415 30.9121ZM46.5025 49.1571H43.7619C43.3415 49.1571 42.9212 48.9555 42.9212 48.5439L42.5008 46.4943C42.5008 46.2927 42.2907 45.881 41.8703 45.881C41.2398 45.6794 40.6093 45.4695 40.189 45.2679H39.7686C39.5584 45.2679 39.3483 45.2679 39.3483 45.4695L37.6669 46.6959C37.4567 46.8975 37.2466 46.8975 37.2466 46.8975C37.0364 46.8975 36.8262 46.8975 36.6161 46.6959L34.7245 44.8479C34.5143 44.6463 34.3042 44.0246 34.7245 43.823L35.9855 42.185C36.1957 41.9834 36.1957 41.5718 35.9855 41.3618C35.7754 40.7486 35.355 40.337 35.355 39.7238C35.355 39.5222 34.9347 39.3122 34.7245 39.1106L32.6144 38.699C32.1941 38.699 31.9839 38.2874 31.9839 37.8758V35.213C31.9839 34.8014 32.1941 34.3897 32.6144 34.3897L34.7245 33.9782C34.9347 33.9782 35.355 33.7765 35.355 33.3649C35.5652 32.7517 35.7754 32.1385 35.9855 31.7269C36.1957 31.5253 36.1957 31.1137 35.9855 30.9037L34.7245 29.2657C34.5143 28.8541 34.5143 28.4425 34.7245 28.2409L36.6161 26.3929C36.8262 26.1913 37.0364 26.1913 37.2466 26.1913C37.4567 26.1913 37.6669 26.1913 37.6669 26.3929L39.3483 27.6193C39.5584 27.8209 39.7686 27.8209 39.7686 27.8209H40.189C40.8195 27.6193 41.2398 27.2077 41.8703 27.2077C42.0805 27.2077 42.2907 26.7961 42.5008 26.5945L42.9212 24.5449C42.9212 24.1333 43.3415 23.9316 43.7619 23.9316H46.5025C46.9228 23.9316 47.3432 24.1333 47.3432 24.5449L47.7635 26.5945C47.7635 26.7961 47.9737 27.2077 48.394 27.2077C49.0245 27.4093 49.655 27.6193 50.0754 27.8209H50.4957C50.7059 27.8209 50.9161 27.8209 50.9161 27.6193L52.5974 26.3929C52.7375 26.2585 52.8777 26.1913 53.0178 26.1913C53.2279 26.1913 53.4381 26.1913 53.6483 26.3929L55.5398 28.2409C55.75 28.4425 55.9602 29.0641 55.5398 29.2657L54.2788 30.9037C54.0686 31.1053 54.0686 31.5169 54.2788 31.7269C54.489 32.3401 54.9093 32.7517 54.9093 33.3649C54.9093 33.5665 55.3296 33.7766 55.5398 33.9782L57.6415 34.3897C58.0619 34.3897 58.272 34.8014 58.272 35.213V37.8758C58.272 38.2874 58.0619 38.699 57.6415 38.699L55.5398 39.1106C55.3296 39.1106 54.9093 39.3122 54.9093 39.7238C54.6991 40.337 54.489 40.9502 54.2788 41.3618C54.0686 41.5634 54.0686 41.975 54.2788 42.185L55.5398 43.823C55.75 44.2346 55.75 44.6463 55.5398 44.8479L53.6483 46.6959C53.4381 46.8975 53.2279 46.8975 53.0178 46.8975C52.8076 46.8975 52.5974 46.8975 52.5974 46.6959L50.9161 45.4695C50.7059 45.2679 50.4957 45.2679 50.4957 45.2679H50.0754C49.4449 45.4695 49.0245 45.881 48.394 45.881C48.1838 45.881 47.9737 46.2927 47.7635 46.4943L47.3432 48.5439C47.3432 48.9555 46.9228 49.1571 46.5025 49.1571Z" fill="currentColor"/>
<path d="M18.9114 12.6584C14.8341 12.6584 11.3705 16.2201 11.3705 20.4117C11.3705 24.6034 14.8341 28.165 18.9114 28.165C22.9887 28.165 26.4523 24.6034 26.4523 20.4117C26.4523 16.0101 22.9887 12.6584 18.9114 12.6584ZM20.7441 39.2783H16.8685C16.2548 39.2783 15.8513 38.8583 15.6495 38.2283L15.2376 35.2967C15.2376 34.8767 14.8341 34.4566 14.4221 34.4566C13.6067 34.2466 12.7912 33.8266 11.9758 33.4066C11.774 33.4066 11.5722 33.1966 11.362 33.1966C11.1519 33.1966 10.9585 33.1966 10.7484 33.4066L8.50373 35.0867C8.30197 35.2967 8.10019 35.2967 7.89002 35.2967C7.67985 35.2967 7.27632 35.0867 7.07456 34.8767L4.42642 32.155C4.02289 31.735 4.0229 31.105 4.22466 30.685L5.85559 28.375C6.05735 27.955 6.05735 27.535 5.85559 27.115C5.45206 26.275 5.04013 25.435 4.83837 24.6033C4.6366 24.1833 4.43484 23.9733 4.0229 23.7633L1.17298 23.3433C0.559282 23.3433 0.155762 22.7133 0.155762 22.0833V18.1017C0.155762 17.4717 0.559282 17.0517 1.17298 16.8417L4.0229 16.4217C4.42643 16.4217 4.83837 16.0017 4.83837 15.5817C5.04013 14.7417 5.45206 13.9016 5.85559 13.07C6.05735 12.65 6.05735 12.23 5.85559 11.81L4.22466 9.5C3.82113 9.08 4.02289 8.44999 4.42642 8.02999L7.07456 5.30837C7.27632 5.09837 7.68826 4.88837 7.89002 4.88837C8.09179 4.88837 8.29356 4.88837 8.50373 5.09837L10.7484 6.77838C10.9501 6.98839 11.1519 6.98839 11.362 6.98839C11.5722 6.98839 11.7656 6.98839 11.9758 6.77838C12.7912 6.35838 13.6067 5.93838 14.4221 5.72837C14.8257 5.51837 15.0358 5.30837 15.2376 4.88837L15.6495 1.95675C15.6495 1.32674 16.2632 0.906738 16.8685 0.906738H20.7441C21.3578 0.906738 21.7613 1.32674 21.9714 1.95675L22.375 4.88837C22.375 5.30837 22.7785 5.72837 23.1904 5.72837C24.0059 5.93838 24.8214 6.35838 25.6368 6.77838C25.8386 6.77838 26.0488 6.98839 26.2505 6.98839C26.4523 6.98839 26.6541 6.98839 26.8642 6.77838L29.1089 5.09837C29.3106 4.88837 29.5124 4.88837 29.7225 4.88837C29.9327 4.88837 30.3362 5.09837 30.538 5.30837L33.1861 8.02999C33.5897 8.44999 33.5897 9.08 33.3879 9.5L31.757 11.81C31.5552 12.23 31.5552 12.65 31.757 13.07C32.1605 13.91 32.5725 14.7501 32.7742 15.5817C32.976 16.0017 33.1777 16.2117 33.5897 16.4217L36.4396 16.8417C37.0533 16.8417 37.4568 17.4717 37.4568 18.1017V22.0833C37.4568 22.7133 37.0533 23.1333 36.4396 23.3433L33.5897 23.7633C33.1862 23.7633 32.7742 24.1833 32.7742 24.6033C32.5725 25.4434 32.1605 26.2834 31.757 27.115C31.5552 27.535 31.5552 27.955 31.757 28.375L33.3879 30.685C33.7915 31.105 33.5897 31.735 33.1861 32.155L30.538 34.8767C30.3362 35.0867 29.9243 35.2967 29.7225 35.2967C29.5208 35.2967 29.319 35.2967 29.1089 35.0867L26.8642 33.4066C26.6625 33.1966 26.4607 33.1966 26.2505 33.1966C26.0403 33.1966 25.847 33.1966 25.6368 33.4066C24.8214 33.8266 24.0059 34.2466 23.1904 34.4566C22.7869 34.6666 22.5767 34.8767 22.375 35.2967L21.9714 38.2283C21.7697 38.8583 21.3578 39.2783 20.7441 39.2783Z" fill="currentColor"/>
</svg>
