<svg width="45" height="45" viewBox="0 0 45 45" fill="none" xmlns="http://www.w3.org/2000/svg">
<path d="M30.6092 18.7836C29.9786 16.8851 28.499 15.1967 26.5991 14.1467L36.0904 4.87304L32.2905 0.866211H44.741V12.8783L40.5208 9.08149L30.6092 18.7752V18.7836ZM13.3079 43.4462H0.857422V31.6441L4.86747 35.6509L15.2078 25.5372C16.0485 27.4357 17.7383 28.9057 19.6383 29.5441L9.29785 39.6578L13.3079 43.4546V43.4462Z" fill="currentColor"/>
<path d="M14.7873 18.5731L5.08582 8.66942L1.49609 12.6763V0.244141H13.3077L9.29762 4.25099L18.9991 14.1547C17.0992 14.9947 15.628 16.6831 14.7789 18.5815L14.7873 18.5731ZM43.9001 44.0757H31.8784L35.6782 39.8589L25.5564 29.5352C27.4564 28.6952 29.1461 27.2168 30.197 25.5284L39.8984 35.4321L43.9085 31.6352V44.0674L43.9001 44.0757Z" fill="currentColor"/>
<path d="M22.5973 27.4269C19.4363 27.4269 16.8975 24.8985 16.8975 21.7401C16.8975 18.5816 19.4279 16.0532 22.5973 16.0532C25.7667 16.0532 28.2971 18.5816 28.2971 21.7401C28.2971 24.8985 25.7667 27.4269 22.5973 27.4269Z" fill="currentColor"/>
</svg>
