<svg width="50" height="50" viewBox="0 0 52 51" fill="none" xmlns="http://www.w3.org/2000/svg">
<path d="M25.8201 0.280762C11.9068 0.280762 0.599609 11.5789 0.599609 25.481C0.599609 39.3831 11.9068 50.6812 25.8201 50.6812C39.7334 50.6812 51.0405 39.3831 51.0405 25.481C51.0405 11.5789 39.7334 0.280762 25.8201 0.280762ZM41.6921 41.122C37.5644 45.2464 32.1252 47.6404 25.8201 47.6404C19.515 47.6404 14.0757 45.2464 9.94799 41.122C5.82024 36.9975 3.4243 31.5627 3.4243 25.2626C3.4243 18.9626 5.82024 13.5277 9.94799 9.40326C14.0757 5.27882 19.515 2.88479 25.8201 2.88479C32.1252 2.88479 37.5644 5.27882 41.6921 9.40326C45.8199 13.5277 48.2158 18.9626 48.2158 25.2626C48.2158 31.5627 45.8199 37.2075 41.6921 41.122Z" fill="currentColor"/>
<path d="M42.1293 24.6156C41.9107 20.9195 40.6077 17.4503 38.2117 14.8379H36.2529C36.2529 14.8379 36.4715 14.8379 36.4715 15.0563C39.0776 17.6603 40.8178 21.3563 40.8178 25.4808C40.8178 29.3868 39.2962 32.8645 36.9003 35.4769L36.4631 35.9137L38.6405 38.0893L39.725 37.0057L38.4219 35.9221C40.5993 33.3181 42.1209 29.8404 42.3395 26.1444H44.7354V24.624H42.1293V24.6156Z" fill="currentColor"/>
<path d="M39.7333 13.3178L38.6489 12.2342L37.1272 13.7546C34.3025 11.1506 30.6035 9.41175 26.686 9.19334V6.79932H25.1643V9.19334C21.0366 9.41175 17.3376 11.1506 14.5129 13.7546L12.7727 12.0158L11.6882 13.0994L13.4284 14.8382C11.251 17.4422 9.72941 20.9198 9.72941 24.6159H7.12329V26.1363H9.72941C9.94799 29.6139 11.251 32.8732 13.2098 35.4772L11.6882 37.216L12.7727 38.0812L15.1686 35.4772L14.7315 35.0404C12.5541 32.4363 11.251 29.1771 11.251 25.4811C11.251 21.3566 12.9913 17.6606 15.5974 15.0566C18.2035 12.4526 21.9025 10.7138 26.0302 10.7138C29.9478 10.7138 33.6384 12.2342 36.2529 14.8382H38.2117L39.7333 13.3178Z" fill="currentColor"/>
<path d="M23.2139 26.136L20.3892 28.53L22.1294 30.2688L24.5253 27.6648C24.9625 27.8832 25.3912 28.1016 25.8284 28.1016C27.35 28.1016 28.6531 26.7996 28.6531 25.2792C28.6531 24.624 28.4345 24.1956 28.2159 23.7588" fill="currentColor"/>
<path d="M28.2076 23.7424L34.5127 16.7871L27.1231 22.8688C26.6859 22.6504 26.2572 22.6503 25.8201 22.6503C24.2984 22.6503 22.9954 23.9524 22.9954 25.4728C22.9954 25.6912 22.9954 26.128 23.2139 26.338" fill="currentColor"/>
</svg>
