<svg width="50" height="50" viewBox="0 0 51 48" fill="none" xmlns="http://www.w3.org/2000/svg">
<path d="M25.9966 47.2288C21.4654 47.2288 17.1527 46.1872 13.4873 44.0956L21.8941 29.6895C23.1888 30.3195 24.4834 30.7311 25.9882 30.7311C27.4931 30.7311 28.7877 30.3111 30.0824 29.6895L38.7078 43.8856C35.0424 45.9772 30.7297 47.2288 25.9882 47.2288H25.9966Z" fill="currentColor"/>
<path d="M0.322266 23.1124C0.322266 18.6016 1.38152 14.0823 3.50845 9.79827C5.84554 5.51423 8.82156 2.34741 12.6551 0.0961914L21.1628 15.4431C19.8849 16.1235 19.0359 17.2491 18.1868 18.6016C17.5478 19.954 17.1275 21.5332 17.1275 22.8856L0.322266 23.1124Z" fill="currentColor"/>
<path d="M33.9833 22.0203C33.9833 20.7267 33.5545 19.2231 32.924 17.9379C32.0749 16.6442 31.2258 15.5774 29.948 14.9306L38.2455 0.104492C41.8605 2.25491 45.2652 5.26214 47.3922 9.34458C49.7292 13.217 50.7969 17.7279 50.7969 22.0287H33.9917L33.9833 22.0203Z" fill="currentColor"/>
<path d="M25.6437 27.4974C23.3066 27.4974 21.1628 25.305 21.1628 22.6758C21.1628 19.8282 23.1132 17.6357 25.4503 17.6357C27.7874 17.6357 29.9312 19.8282 29.9312 22.4574C30.1245 25.0866 28.1825 27.279 25.6437 27.4974Z" fill="currentColor"/>
</svg>
