<svg width="50" height="50" viewBox="0 0 52 42" fill="none" xmlns="http://www.w3.org/2000/svg">
<path d="M26.8259 41.393C26.3636 41.393 25.9096 41.1578 25.4472 40.6958C22.6898 38.3774 20.1593 36.0589 17.3935 33.7405C16.2417 32.5813 14.863 31.6573 13.7113 30.4981C13.2489 30.2629 12.795 30.0361 12.3326 30.0361H2.43774C0.596651 30.0361 0.134277 29.3389 0.134277 27.7177V14.2775C0.134277 12.4211 0.823638 11.9591 2.66473 11.9591H12.0972C13.0135 11.9591 13.4759 11.7239 14.1653 11.2619C17.8475 8.01947 21.5296 5.00385 24.9764 1.76142C25.4388 1.29941 26.1282 0.837402 26.8175 0.837402C27.0445 0.837402 27.2799 0.837401 27.5069 1.0726C28.4232 1.53461 28.6586 2.46702 28.6586 3.39103V39.5449C28.6586 40.469 28.1963 41.1662 27.5069 41.4014H26.8175L26.8259 41.393Z" fill="currentColor"/>
<path d="M43.648 41.393C43.2025 41.393 42.9755 41.1578 42.5299 40.931C41.6388 40.2338 41.6388 39.0745 42.3029 38.1505C45.2117 34.2109 47.0023 29.8093 47.6749 24.9372C48.566 17.52 46.7838 10.7999 42.7569 4.77704C42.5299 4.54184 42.5299 4.31502 42.3113 4.07982C41.6388 3.15581 41.6388 1.9966 42.5383 1.2994C42.9839 1.06419 43.2109 0.837402 43.6564 0.837402C44.329 0.837402 44.7745 1.07261 45.2201 1.76142C47.0107 4.07984 48.3558 6.62507 49.4739 9.40549C51.0376 13.1099 51.7102 17.0496 51.7102 22.8456C51.7102 28.1797 49.4739 34.6645 45.4471 40.2254C44.7745 40.9226 44.102 41.3846 43.6564 41.3846L43.648 41.393Z" fill="currentColor"/>
<path d="M38.318 35.9161H37.8809C36.561 35.6893 36.1239 34.3032 36.788 32.9172C37.6623 31.5312 38.545 30.1452 38.9822 28.5324C41.6135 21.6107 40.9578 15.1511 37.0066 8.9182C36.1323 7.53218 36.1323 6.38137 37.0066 5.68416C37.2251 5.45736 37.6623 5.22217 37.8809 5.22217C38.5366 5.22217 39.2008 5.68417 39.8565 6.60818C42.4878 10.7578 44.0263 15.3779 44.0263 20.4515C44.0263 25.5252 42.4878 30.1452 39.8565 34.53C39.4193 35.6808 38.9822 35.9161 38.318 35.9161Z" fill="currentColor"/>
<path d="M32.8452 30.4307C32.593 30.4307 32.0802 30.4307 31.8196 30.2123C30.7939 29.5571 30.5417 28.6751 31.3068 27.5831C34.1231 23.1982 34.1231 18.8134 31.3068 14.647C30.5417 13.5549 30.7939 12.4545 31.8196 12.0177C32.0718 11.7993 32.5846 11.7993 32.8452 11.7993C33.6102 11.7993 34.1231 12.2361 34.6359 12.8913C36.4265 15.5206 37.4522 18.3682 37.4522 21.4426C37.4522 24.2902 36.4265 27.1463 34.8965 29.5571C34.1315 29.9939 33.3664 30.4307 32.8536 30.4307H32.8452Z" fill="currentColor"/>
</svg>
