<svg width="50" height="50" viewBox="0 0 36 56" fill="none" xmlns="http://www.w3.org/2000/svg">
<path d="M13.4581 36.2971C9.90199 37.1371 7.39676 40.0604 7.39676 43.6052C7.39676 47.57 10.7427 50.9133 14.7107 50.9133C18.6787 50.9133 22.0246 47.57 22.0246 43.6052C22.0246 40.052 19.5194 37.1287 16.1735 36.4987V10.8029H13.4581V36.2971Z" fill="currentColor"/>
<path d="M20.9822 33.5839V7.26646C20.9822 3.92323 18.2668 1 14.7107 1C11.3648 1 8.43921 3.71323 8.43921 7.26646V33.5839C5.0933 35.6755 3 39.4304 3 43.6136C3 50.0901 8.22906 55.3149 14.7107 55.3149C21.1924 55.3149 26.4214 50.0901 26.4214 43.6136C26.4214 39.2288 24.3281 35.6755 20.9822 33.5839ZM21.1924 49.8801C19.5194 51.5517 17.216 52.5933 14.9209 52.5933C12.6258 52.5933 10.1122 51.5517 8.64938 49.8801C6.97643 48.2084 5.934 45.9152 5.934 43.6136C5.934 40.0604 7.81713 37.1371 10.7427 35.6755L11.3732 35.2555V7.26646C11.3732 6.22485 11.7935 5.38485 12.4157 4.76324C13.0462 4.13324 13.8784 3.72163 14.9209 3.72163C15.9633 3.72163 16.804 4.14164 17.4261 4.76324C18.0566 5.39325 18.4686 6.22485 18.4686 7.26646V35.0455L19.3008 35.4655C22.2264 36.9271 24.1095 40.0604 24.1095 43.4036C23.6892 46.1168 22.6467 48.2084 21.184 49.8801H21.1924Z" fill="currentColor"/>
<path d="M33.7353 7.88807H25.1604V10.6013H33.7353V7.88807Z" fill="currentColor"/>
<path d="M29.9691 12.9029H25.1604V15.6161H29.9691V12.9029Z" fill="currentColor"/>
<path d="M33.7353 17.9178H25.1604V20.631H33.7353V17.9178Z" fill="currentColor"/>
<path d="M33.7353 27.9391H25.1604V30.6523H33.7353V27.9391Z" fill="currentColor"/>
<path d="M29.9775 22.9326H25.1688V25.6458H29.9775V22.9326Z" fill="currentColor"/>
</svg>
